<?xml version="1.0" standalone="no"?><!-- Generator: Gravit.io --><svg xmlns="http://www.w3.org/2000/svg" xmlns:xlink="http://www.w3.org/1999/xlink" style="isolation:isolate" viewBox="440 69.219 581.97 338.781" width="581.97" height="338.781"><rect x="523.5" y="161" width="17" height="247" transform="matrix(1,0,0,1,0,0)" fill="rgb(70,42,31)"/><path d="M 462.57 104 L 491.43 104 C 503.887 104 514 114.113 514 126.57 L 514 172.43 C 514 184.887 503.887 195 491.43 195 L 462.57 195 C 450.113 195 440 184.887 440 172.43 L 440 126.57 C 440 114.113 450.113 104 462.57 104 Z" style="stroke:none;fill:#44783A;stroke-miterlimit:10;"/><path d="M 470.032 192.5 L 497.968 192.5 C 506.678 192.5 513.75 199.572 513.75 208.282 L 513.75 227.718 C 513.75 236.428 506.678 243.5 497.968 243.5 L 470.032 243.5 C 461.322 243.5 454.25 236.428 454.25 227.718 L 454.25 208.282 C 454.25 199.572 461.322 192.5 470.032 192.5 Z" style="stroke:none;fill:#32592C;stroke-miterlimit:10;"/><path d="M 506.872 202.78 L 541.128 202.78 C 550.44 202.78 558 210.34 558 219.652 L 558 236.908 C 558 246.22 550.44 253.78 541.128 253.78 L 506.872 253.78 C 497.56 253.78 490 246.22 490 236.908 L 490 219.652 C 490 210.34 497.56 202.78 506.872 202.78 Z" style="stroke:none;fill:#32592C;stroke-miterlimit:10;"/><path d="M 542.872 191.5 L 577.128 191.5 C 586.44 191.5 594 199.06 594 208.372 L 594 225.628 C 594 234.94 586.44 242.5 577.128 242.5 L 542.872 242.5 C 533.56 242.5 526 234.94 526 225.628 L 526 208.372 C 526 199.06 533.56 191.5 542.872 191.5 Z" style="stroke:none;fill:#32592C;stroke-miterlimit:10;"/><path d="M 511.57 157.28 L 540.43 157.28 C 552.887 157.28 563 167.393 563 179.85 L 563 225.71 C 563 238.167 552.887 248.28 540.43 248.28 L 511.57 248.28 C 499.113 248.28 489 238.167 489 225.71 L 489 179.85 C 489 167.393 499.113 157.28 511.57 157.28 Z" style="stroke:none;fill:#44783A;stroke-miterlimit:10;"/><path d="M 506.57 80 L 535.43 80 C 547.887 80 558 90.113 558 102.57 L 558 148.43 C 558 160.887 547.887 171 535.43 171 L 506.57 171 C 494.113 171 484 160.887 484 148.43 L 484 102.57 C 484 90.113 494.113 80 506.57 80 Z" style="stroke:none;fill:#44783A;stroke-miterlimit:10;"/><path d="M 554.57 88.5 L 583.43 88.5 C 595.887 88.5 606 98.613 606 111.07 L 606 156.93 C 606 169.387 595.887 179.5 583.43 179.5 L 554.57 179.5 C 542.113 179.5 532 169.387 532 156.93 L 532 111.07 C 532 98.613 542.113 88.5 554.57 88.5 Z" style="stroke:none;fill:#44783A;stroke-miterlimit:10;"/><path d="M 557.35 134 L 602.65 134 C 610.984 134 617.75 140.766 617.75 149.1 L 617.75 202.9 C 617.75 211.234 610.984 218 602.65 218 L 557.35 218 C 549.016 218 542.25 211.234 542.25 202.9 L 542.25 149.1 C 542.25 140.766 549.016 134 557.35 134 Z" style="stroke:none;fill:#44783A;stroke-miterlimit:10;"/><path d="M 470.282 183 L 498.218 183 C 506.928 183 514 190.072 514 198.782 L 514 218.218 C 514 226.928 506.928 234 498.218 234 L 470.282 234 C 461.572 234 454.5 226.928 454.5 218.218 L 454.5 198.782 C 454.5 190.072 461.572 183 470.282 183 Z" style="stroke:none;fill:#44783A;stroke-miterlimit:10;"/><path d="M 793.095 182 L 995.905 182 C 1006.996 182 1016 191.004 1016 202.095 L 1016 387.905 C 1016 398.996 1006.996 408 995.905 408 L 793.095 408 C 782.004 408 773 398.996 773 387.905 L 773 202.095 C 773 191.004 782.004 182 793.095 182 Z" style="stroke:none;fill:#ECE472;stroke-miterlimit:10;"/><path d="M 736.28 125 L 1013.69 125 C 1018.26 125 1021.97 128.71 1021.97 133.28 L 1021.97 208.72 C 1021.97 213.29 1018.26 217 1013.69 217 L 736.28 217 C 731.71 217 728 213.29 728 208.72 L 728 133.28 C 728 128.71 731.71 125 736.28 125 Z" style="stroke:none;fill:#922E30;stroke-miterlimit:10;"/><path d=" M 562 194 L 666 88 L 784 190 L 764 209 L 584 209 L 562 194 Z " fill="rgb(248,239,121)"/><path d="M 569.93 194 L 784.07 194 C 788.446 194 792 197.554 792 201.93 L 792 400.07 C 792 404.446 788.446 408 784.07 408 L 569.93 408 C 565.554 408 562 404.446 562 400.07 L 562 201.93 C 562 197.554 565.554 194 569.93 194 Z" style="stroke:none;fill:#F8EF79;stroke-miterlimit:10;"/><g id="null"><path d="M 684.911 230 L 753.089 230 C 757.455 230 761 233.545 761 237.911 L 761 336.033 C 761 340.399 757.455 343.944 753.089 343.944 L 684.911 343.944 C 680.545 343.944 677 340.399 677 336.033 L 677 237.911 C 677 233.545 680.545 230 684.911 230 Z" style="stroke:none;fill:#FBA960;stroke-miterlimit:10;"/><path d="M 688.683 238.056 L 712.641 238.056 C 714.192 238.056 715.451 239.315 715.451 240.866 L 715.451 283.162 C 715.451 284.713 714.192 285.972 712.641 285.972 L 688.683 285.972 C 687.132 285.972 685.873 284.713 685.873 283.162 L 685.873 240.866 C 685.873 239.315 687.132 238.056 688.683 238.056 Z" style="stroke:none;fill:#BBF4F4;stroke-miterlimit:10;"/><path d="M 726.542 290.113 L 750.5 290.113 C 752.051 290.113 753.31 291.372 753.31 292.923 L 753.31 335.218 C 753.31 336.769 752.051 338.028 750.5 338.028 L 726.542 338.028 C 724.991 338.028 723.732 336.769 723.732 335.218 L 723.732 292.923 C 723.732 291.372 724.991 290.113 726.542 290.113 Z" style="stroke:none;fill:#BBF4F4;stroke-miterlimit:10;"/><path d="M 688.683 290.113 L 712.641 290.113 C 714.192 290.113 715.451 291.372 715.451 292.923 L 715.451 335.218 C 715.451 336.769 714.192 338.028 712.641 338.028 L 688.683 338.028 C 687.132 338.028 685.873 336.769 685.873 335.218 L 685.873 292.923 C 685.873 291.372 687.132 290.113 688.683 290.113 Z" style="stroke:none;fill:#BBF4F4;stroke-miterlimit:10;"/><path d="M 726.542 238.056 L 750.5 238.056 C 752.051 238.056 753.31 239.315 753.31 240.866 L 753.31 283.162 C 753.31 284.713 752.051 285.972 750.5 285.972 L 726.542 285.972 C 724.991 285.972 723.732 284.713 723.732 283.162 L 723.732 240.866 C 723.732 239.315 724.991 238.056 726.542 238.056 Z" style="stroke:none;fill:#BBF4F4;stroke-miterlimit:10;"/></g><g id="null"><path d="M 579.12 257 L 634.88 257 C 638.258 257 641 259.742 641 263.12 L 641 401.88 C 641 405.258 638.258 408 634.88 408 L 579.12 408 C 575.742 408 573 405.258 573 401.88 L 573 263.12 C 573 259.742 575.742 257 579.12 257 Z" style="stroke:none;fill:#613D31;stroke-miterlimit:10;"/><path d="M 585.59 264 L 627.41 264 C 629.943 264 632 266.057 632 268.59 L 632 327.91 C 632 330.443 629.943 332.5 627.41 332.5 L 585.59 332.5 C 583.057 332.5 581 330.443 581 327.91 L 581 268.59 C 581 266.057 583.057 264 585.59 264 Z" style="stroke:none;fill:#BBF4F4;stroke-miterlimit:10;"/><path d=" M 625 352 C 625 349.792 626.792 348 629 348 C 631.208 348 633 349.792 633 352 C 633 354.208 631.208 356 629 356 C 626.792 356 625 354.208 625 352 Z " fill="rgb(204,135,118)"/></g><path d=" M 652 161 C 652 147.202 663.202 136 677 136 C 690.798 136 702 147.202 702 161 C 702 174.798 690.798 186 677 186 C 663.202 186 652 174.798 652 161 Z " fill="rgb(187,244,244)" vector-effect="non-scaling-stroke" stroke-width="5" stroke="rgb(251,169,96)" stroke-linejoin="miter" stroke-linecap="square" stroke-miterlimit="3"/><clipPath id="_clipPath_gTtAjgl4SfvOnZENbJHplfU0SCZPXNEp"><path d=" M 652 161 C 652 147.202 663.202 136 677 136 C 690.798 136 702 147.202 702 161 C 702 174.798 690.798 186 677 186 C 663.202 186 652 174.798 652 161 Z " fill="rgb(187,244,244)" vector-effect="non-scaling-stroke" stroke-width="5" stroke="rgb(251,169,96)" stroke-linejoin="miter" stroke-linecap="square" stroke-miterlimit="3"/></clipPath><g clip-path="url(#_clipPath_gTtAjgl4SfvOnZENbJHplfU0SCZPXNEp)"><rect x="674" y="128" width="7" height="67" transform="matrix(1,0,0,1,0,0)" fill="rgb(251,169,96)"/><rect x="672" y="128" width="7" height="67" transform="matrix(0,-1,1,0,514,837)" fill="rgb(251,169,96)"/></g><g id="null"><path d="M 515.773 221.845 L 664.713 72.905 C 669.628 67.99 677.608 67.99 682.523 72.905 L 682.523 72.905 C 687.438 77.82 687.438 85.8 682.523 90.714 L 533.582 239.655 C 528.668 244.57 520.688 244.57 515.773 239.655 L 515.773 239.655 C 510.858 234.74 510.858 226.76 515.773 221.845 Z" style="stroke:none;fill:#A43135;stroke-miterlimit:10;"/><path d="M 682.553 72.934 L 831.375 221.757 C 836.306 226.688 836.306 234.695 831.375 239.626 L 831.375 239.626 C 826.444 244.557 818.438 244.557 813.507 239.626 L 664.684 90.803 C 659.753 85.872 659.753 77.865 664.684 72.934 L 664.684 72.934 C 669.615 68.003 677.622 68.003 682.553 72.934 Z" style="stroke:none;fill:#A43135;stroke-miterlimit:10;"/></g><path d="M 862.1 257 L 980.9 257 C 985.371 257 989 260.629 989 265.1 L 989 399.9 C 989 404.371 985.371 408 980.9 408 L 862.1 408 C 857.629 408 854 404.371 854 399.9 L 854 265.1 C 854 260.629 857.629 257 862.1 257 Z" style="stroke:none;fill:#922F31;stroke-miterlimit:10;"/><clipPath id="_clipPath_lo4cSzBHlKPAgeaPHNEYGbgUvVDoeTfY"><path d="M 862.1 257 L 980.9 257 C 985.371 257 989 260.629 989 265.1 L 989 399.9 C 989 404.371 985.371 408 980.9 408 L 862.1 408 C 857.629 408 854 404.371 854 399.9 L 854 265.1 C 854 260.629 857.629 257 862.1 257 Z" style="stroke:black;fill:white;stroke-miterlimit:10;"/></clipPath><g clip-path="url(#_clipPath_lo4cSzBHlKPAgeaPHNEYGbgUvVDoeTfY)"><rect x="816" y="274" width="222" height="21" transform="matrix(1,0,0,1,0,0)" fill="rgb(171,55,55)"/><rect x="816" y="311.5" width="222" height="21" transform="matrix(1,0,0,1,0,0)" fill="rgb(171,55,55)"/><rect x="816" y="349" width="222" height="21" transform="matrix(1,0,0,1,0,0)" fill="rgb(171,55,55)"/><rect x="816" y="386.5" width="222" height="21" transform="matrix(1,0,0,1,0,0)" fill="rgb(171,55,55)"/></g><path d="M 818.113 88 L 839.96 88 C 841.638 88 843 89.362 843 91.04 L 843 157.96 C 843 159.638 841.638 161 839.96 161 L 818.113 161 C 816.436 161 815.074 159.638 815.074 157.96 L 815.074 91.04 C 815.074 89.362 816.436 88 818.113 88 Z" style="stroke:none;fill:#EBEBEB;stroke-miterlimit:10;"/><path d="M 810.24 80 L 850.76 80 C 852.548 80 854 81.452 854 83.24 L 854 94.76 C 854 96.548 852.548 98 850.76 98 L 810.24 98 C 808.452 98 807 96.548 807 94.76 L 807 83.24 C 807 81.452 808.452 80 810.24 80 Z" style="stroke:none;fill:#62595C;stroke-miterlimit:10;"/><g id="null"><path d=" M 490.087 408 L 490.087 303 L 501.087 275 L 512.087 303 L 512.087 408 L 490.087 408 Z " fill="rgb(251,169,96)"/><path d=" M 450 408 L 450 303 L 461 275 L 472 303 L 472 408 L 450 408 Z " fill="rgb(251,169,96)"/><path d=" M 531.543 408 L 531.543 303 L 542.543 275 L 553.543 303 L 553.543 408 L 531.543 408 Z " fill="rgb(251,169,96)"/><path d="M 443.898 312 L 558.102 312 C 560.253 312 562 313.747 562 315.898 L 562 319.102 C 562 321.253 560.253 323 558.102 323 L 443.898 323 C 441.747 323 440 321.253 440 319.102 L 440 315.898 C 440 313.747 441.747 312 443.898 312 Z" style="stroke:none;fill:#593B12;stroke-miterlimit:10;"/><path d="M 443.898 360 L 558.102 360 C 560.253 360 562 361.747 562 363.898 L 562 367.102 C 562 369.253 560.253 371 558.102 371 L 443.898 371 C 441.747 371 440 369.253 440 367.102 L 440 363.898 C 440 361.747 441.747 360 443.898 360 Z" style="stroke:none;fill:#593B12;stroke-miterlimit:10;"/></g></svg>