<?xml version="1.0" standalone="no"?>
<!DOCTYPE svg PUBLIC "-//W3C//DTD SVG 20010904//EN"
 "http://www.w3.org/TR/2001/REC-SVG-20010904/DTD/svg10.dtd">
<svg version="1.0" xmlns="http://www.w3.org/2000/svg"
 width="1280.000000pt" height="605.000000pt" viewBox="0 0 1280.000000 605.000000"
 preserveAspectRatio="xMidYMid meet">
<metadata>
Created by potrace 1.15, written by Peter Selinger 2001-2017
</metadata>
<g transform="translate(0.000000,605.000000) scale(0.100000,-0.100000)"
fill="#4caf50" stroke="none">
<path d="M6372 5954 c27 -29 44 -62 67 -134 46 -145 68 -224 100 -360 16 -69
48 -183 70 -254 39 -124 40 -132 31 -199 -6 -38 -13 -82 -17 -96 -8 -33 -42
-110 -43 -95 0 5 -7 19 -15 30 -13 17 -13 15 0 -18 14 -35 14 -44 -2 -98 -10
-33 -21 -60 -25 -60 -5 0 -9 17 -10 38 -3 71 -6 87 -27 132 -12 25 -19 34 -15
20 3 -14 7 -61 10 -105 l4 -80 -15 50 c-9 28 -23 73 -31 100 -8 28 -42 127
-74 222 -59 168 -60 172 -45 212 18 51 11 54 -10 4 l-16 -37 -59 93 c-33 51
-60 94 -60 97 0 14 -38 40 -79 55 -83 30 -87 30 -26 -1 42 -21 64 -40 76 -63
17 -32 17 -39 -4 -157 l-21 -123 -26 33 c-52 68 -60 73 -20 11 51 -76 50 -85
-9 -286 l-39 -130 1 200 c1 110 -1 229 -5 265 -5 36 -12 103 -18 150 -5 47
-13 112 -16 145 -4 33 -8 62 -10 64 -7 8 -4 -77 5 -151 35 -269 36 -425 5
-682 -6 -48 -7 -49 -20 -25 -7 13 -14 56 -15 94 l-2 70 -6 -60 -6 -60 -13 100
c-14 115 -60 320 -92 414 -11 35 -42 107 -67 160 -25 53 -52 112 -59 131 -9
25 -13 29 -14 14 0 -12 11 -41 24 -65 49 -88 114 -373 130 -569 16 -196 16
-227 3 -190 -7 19 -18 46 -25 58 -8 13 -17 58 -20 100 l-7 77 -6 -55 c-3 -30
-4 9 -2 87 2 122 1 141 -12 137 -12 -5 -15 -26 -16 -93 -1 -111 -15 -70 -25
73 -5 64 -10 93 -15 81 -4 -12 -8 -14 -8 -6 -1 8 -3 12 -5 10 -2 -2 4 -61 13
-131 10 -71 14 -128 10 -128 -4 0 -11 9 -14 20 -4 11 -18 34 -33 51 -19 23
-26 42 -25 73 1 40 1 40 -6 7 l-6 -35 -54 63 c-53 61 -102 96 -123 89 -6 -2 3
-10 21 -18 37 -15 137 -153 125 -172 -4 -6 -3 -8 4 -4 14 8 24 -8 16 -28 -5
-13 -9 -14 -20 -5 -19 15 -18 4 3 -27 14 -22 15 -43 8 -177 -5 -84 -8 -186 -7
-227 1 -41 -2 -91 -6 -110 -7 -33 -12 -23 -71 145 -56 162 -63 188 -63 260 0
62 -2 71 -7 40 l-7 -40 -8 38 c-6 27 -2 64 14 133 24 106 21 139 -5 47 -25
-90 -27 -92 -41 -38 -6 28 -13 63 -13 78 -1 16 -5 26 -11 22 -5 -3 -10 -1 -10
6 0 7 -2 10 -4 8 -3 -2 3 -36 13 -74 11 -39 15 -71 11 -73 -4 -2 -3 -18 3 -37
11 -38 -8 -149 -25 -139 -12 8 -10 58 5 73 10 10 9 11 -5 6 -13 -5 -18 0 -21
22 -4 26 -4 26 -6 -6 0 -21 -12 -45 -31 -67 -16 -18 -32 -49 -36 -69 -3 -19
-9 -35 -13 -35 -3 0 -21 38 -38 84 -31 79 -33 90 -34 232 -1 82 1 176 4 209
l6 60 -14 -60 c-8 -33 -15 -87 -15 -120 -2 -76 -45 -325 -53 -305 -4 8 -22 58
-41 111 -19 53 -42 111 -51 129 -16 30 -16 37 0 97 9 36 14 67 12 70 -3 2 -10
-17 -16 -42 -6 -25 -12 -45 -14 -45 -1 0 -3 55 -5 123 -2 67 -9 167 -15 222
l-13 100 -7 -110 c-11 -167 -20 -242 -25 -225 -3 8 -36 61 -75 116 l-69 102
36 56 c20 31 57 71 82 89 71 50 84 61 54 46 -61 -29 -129 -82 -159 -124 -23
-31 -38 -44 -49 -40 -11 4 -12 2 -4 -8 8 -10 1 -28 -30 -75 -22 -34 -42 -61
-43 -60 -2 2 -16 42 -32 89 -39 115 -34 130 61 176 75 36 74 37 -13 8 -41 -13
-58 -25 -73 -52 l-21 -34 -41 38 c-84 78 -99 86 -34 17 l68 -72 -27 -63 c-93
-226 -145 -384 -175 -531 -18 -87 -35 -158 -38 -158 -15 0 -41 318 -43 505
l-1 200 -5 -165 -6 -165 -18 96 -18 96 -81 79 c-44 43 -77 72 -73 64 9 -16 73
-95 113 -140 12 -13 22 -35 22 -47 0 -12 4 -77 9 -145 27 -342 22 -353 -39
-103 -31 125 -14 12 25 -171 35 -159 46 -265 25 -234 -8 11 -10 3 -9 -30 0
-25 -9 -70 -20 -100 -11 -30 -29 -84 -39 -120 l-18 -64 -31 45 c-19 27 -36 69
-43 106 -11 56 -10 70 14 161 14 54 26 105 25 113 0 8 -11 -24 -24 -69 -25
-89 -41 -121 -31 -62 4 19 13 82 21 140 9 58 27 165 40 239 14 74 25 139 25
145 0 6 5 4 11 -4 9 -12 10 -12 5 3 -3 10 -7 37 -7 60 -1 23 -3 33 -5 22 -2
-11 -26 -130 -52 -265 l-47 -245 -7 80 c-4 44 -3 143 2 220 9 134 2 591 -8
580 -3 -3 -4 -89 -3 -193 2 -191 -17 -484 -29 -460 -4 7 -11 36 -15 63 -4 28
-9 45 -12 39 -2 -6 3 -45 12 -85 23 -104 29 -290 12 -359 l-13 -55 -13 40 c-7
22 -19 54 -27 72 -8 17 -14 40 -14 50 0 11 -7 35 -17 53 -19 39 -30 174 -16
192 14 18 26 71 15 64 -5 -3 -18 -23 -28 -43 l-18 -38 -14 50 c-8 28 -19 53
-25 56 -6 5 -4 47 7 124 10 64 15 119 13 121 -2 3 -12 -46 -22 -108 -10 -62
-19 -115 -21 -117 -1 -1 -20 9 -41 24 l-38 27 39 -36 39 -36 -13 -160 c-7 -88
-16 -160 -20 -160 -4 0 -12 26 -19 58 -14 63 -118 378 -133 402 -12 21 -9 5
46 -180 25 -85 57 -207 71 -271 23 -102 25 -127 18 -210 l-8 -94 -48 90 c-47
88 -50 104 -32 160 3 11 -2 5 -12 -13 l-19 -33 -18 38 c-15 31 -18 59 -17 148
1 73 -5 154 -19 240 -13 80 -19 149 -16 180 17 142 38 280 57 373 11 57 19
106 16 108 -6 6 -54 -214 -78 -356 -23 -138 -35 -171 -26 -70 8 82 17 322 12
295 -17 -81 -37 -416 -42 -705 l-6 -345 -18 70 c-29 113 -31 162 -14 320 16
137 19 204 11 212 -1 2 -8 -60 -16 -137 -7 -77 -15 -138 -17 -136 -3 3 -8 38
-12 78 -3 40 -6 -92 -6 -294 0 -201 -1 -365 -2 -364 -5 4 -73 291 -74 310 -1
15 -3 16 -6 5 -2 -9 17 -110 42 -224 25 -114 44 -209 42 -211 -2 -3 -17 40
-32 93 -39 139 -124 403 -141 438 -16 35 -38 65 -48 65 -4 0 0 -12 8 -27 7
-16 23 -75 35 -132 26 -130 30 -385 6 -417 -14 -19 -14 -19 -16 1 -1 11 -5 4
-9 -15 -4 -19 -11 -44 -15 -54 -6 -15 -5 -17 5 -11 10 6 12 4 7 -9 -4 -10 -7
-39 -8 -64 l-1 -47 -9 40 c-5 21 -7 46 -4 54 3 8 2 17 -3 20 -4 3 -21 78 -36
166 l-28 160 12 280 c6 154 13 298 15 320 3 22 3 36 0 30 -11 -25 -35 -259
-35 -346 0 -126 -19 -361 -31 -374 -5 -5 -10 -59 -10 -120 l-2 -110 -9 95 c-8
85 -3 295 7 360 3 14 -2 7 -10 -15 -15 -40 -15 -40 -11 40 4 68 3 74 -5 40 -6
-22 -13 -147 -16 -278 -3 -131 -7 -236 -10 -234 -11 12 -43 174 -43 221 0 29
11 133 25 232 17 121 25 224 25 318 l0 139 41 76 c23 42 55 96 72 121 46 69
16 35 -67 -74 l-73 -97 -17 -137 c-26 -208 -27 -207 -27 96 -1 107 -3 191 -6
188 -3 -2 -13 -81 -22 -175 -16 -157 -27 -201 -52 -201 -4 0 -10 33 -12 73
l-3 72 -2 -81 c-2 -75 -4 -82 -32 -109 -19 -18 -33 -43 -36 -67 -4 -21 -10
-35 -15 -33 -4 3 -9 -12 -11 -32 l-3 -38 -13 43 c-7 23 -16 138 -21 255 l-8
212 -1 -179 c-1 -99 -4 -177 -7 -175 -2 3 -18 74 -34 159 -28 142 -99 395
-108 386 -2 -2 11 -59 30 -127 19 -68 44 -187 56 -263 12 -77 35 -185 50 -240
43 -151 41 -350 -5 -546 l-18 -75 -14 55 c-8 30 -17 132 -21 225 l-7 170 -2
-142 c-2 -107 3 -168 18 -244 18 -92 18 -135 2 -164 -6 -9 -15 16 -33 85 -7
29 -8 26 -4 -20 3 -37 1 -50 -5 -40 -14 22 -12 10 9 -44 18 -47 18 -50 0 -108
-11 -33 -19 -70 -19 -83 0 -13 -4 -26 -10 -30 -5 -3 -11 28 -13 77 l-3 83 -3
-95 c-2 -70 -5 -89 -11 -72 -6 14 -6 71 0 147 9 109 10 578 2 570 -8 -8 -32
-114 -32 -145 -1 -31 -2 -33 -12 -16 -6 11 -11 61 -12 112 -1 51 -4 85 -7 76
-7 -16 -25 100 -21 125 2 6 16 44 32 84 32 77 40 119 11 56 -10 -20 -20 -35
-23 -32 -6 6 -43 -86 -40 -98 2 -8 -42 -129 -56 -151 -29 -49 -5 191 48 487
12 65 19 124 17 130 -3 10 -75 -343 -103 -507 l-7 -38 -23 28 c-24 28 -24 32
-19 169 3 78 1 162 -4 190 l-10 50 5 -60 c2 -33 -3 -159 -11 -280 -8 -121 -15
-249 -16 -285 l-1 -65 -18 69 c-17 63 -17 75 -4 125 8 30 14 69 13 86 -1 20
-6 9 -15 -34 -8 -36 -16 -66 -18 -69 -3 -2 -10 16 -16 39 -6 24 -15 53 -20 64
-47 107 -81 334 -90 600 l-6 200 -2 -211 c-3 -293 8 -394 65 -596 44 -158 46
-169 33 -207 -7 -23 -16 -41 -20 -41 -8 0 -32 79 -74 245 -30 119 -38 133 -20
35 3 -14 -6 2 -19 36 -31 77 -64 141 -76 149 -6 3 1 -19 15 -49 14 -30 36
-101 50 -158 13 -57 33 -132 44 -167 11 -36 18 -66 16 -68 -2 -2 -17 8 -34 22
-22 18 -32 37 -35 63 -2 21 -5 4 -6 -38 l-2 -75 -60 119 c-32 65 -59 126 -59
135 1 20 -72 252 -77 247 -2 -2 8 -45 22 -95 14 -50 27 -104 30 -119 21 -136
80 -398 118 -523 11 -37 12 -78 5 -210 -5 -90 -13 -177 -17 -194 l-9 -30 -2
30 c-1 17 -6 39 -11 50 -7 16 -8 12 -6 -17 3 -44 -8 -38 -18 9 -4 21 -3 33 4
33 6 0 11 7 11 15 0 8 -6 12 -13 9 -10 -3 -20 19 -35 78 -31 117 -73 259 -83
283 -52 121 -105 282 -144 435 -28 112 -36 168 -45 325 -7 105 -16 213 -20
240 -7 42 -8 38 -4 -25 3 -41 9 -156 14 -255 7 -157 13 -197 44 -316 19 -74
41 -149 47 -165 7 -16 16 -116 20 -229 4 -110 13 -261 18 -335 13 -176 14
-857 1 -844 -5 5 -16 56 -24 114 -12 82 -14 91 -12 42 3 -82 -10 -66 -29 34
-9 43 -33 142 -55 219 -25 90 -48 208 -64 330 -26 188 -64 399 -65 360 -1 -11
8 -69 18 -130 19 -112 35 -248 26 -230 -2 6 -27 143 -55 305 -48 281 -50 304
-50 480 0 197 13 332 56 563 14 77 24 141 21 143 -2 2 -16 -53 -31 -123 -89
-427 -99 -652 -41 -1018 18 -121 37 -236 40 -255 5 -28 4 -32 -5 -20 -9 12
-10 3 -6 -40 3 -30 9 -84 12 -120 4 -36 4 -63 2 -60 -3 3 -43 52 -89 110 -45
58 -108 132 -138 165 -96 102 -89 87 -101 240 -8 118 -16 161 -52 277 -23 76
-44 136 -46 134 -2 -3 13 -62 34 -133 32 -112 38 -144 41 -258 l4 -130 -31 35
c-16 19 -67 90 -112 158 -45 67 -83 120 -85 118 -7 -6 145 -246 191 -302 l42
-51 12 -175 c7 -96 24 -246 38 -334 14 -87 38 -253 54 -369 16 -115 38 -273
49 -350 10 -77 22 -230 26 -340 3 -110 15 -260 26 -333 13 -90 19 -194 20
-320 1 -103 4 -259 8 -347 l6 -160 50 -6 c58 -7 75 -3 75 18 0 9 6 21 13 27
11 9 12 31 6 101 -5 50 -12 214 -18 365 -15 421 -43 681 -107 988 -19 90 -34
166 -34 168 0 2 -7 4 -15 4 -12 0 -15 14 -16 68 0 37 -4 87 -8 112 -8 45 -8
45 -10 -19 -2 -99 -16 -61 -35 94 -10 77 -29 194 -42 260 -27 132 -64 403 -64
467 0 36 2 39 16 27 24 -20 219 -265 263 -329 35 -54 38 -63 60 -230 12 -96
38 -247 56 -335 36 -171 70 -394 61 -402 -7 -7 -72 204 -100 327 -14 58 -25
93 -25 78 -2 -71 24 -243 50 -333 17 -55 53 -181 82 -280 l52 -180 1 -270 c1
-224 5 -294 22 -408 16 -101 22 -184 22 -308 0 -144 2 -169 15 -169 11 0 15
11 15 39 0 40 13 61 25 41 3 -6 9 -47 13 -93 6 -67 10 -82 24 -85 13 -2 18 3
18 17 0 16 6 21 25 21 16 0 25 -6 25 -15 0 -18 7 -18 65 -3 36 10 45 16 45 34
0 13 4 26 10 29 6 3 10 21 10 40 0 31 14 54 26 42 5 -5 -6 -97 -21 -189 -3
-22 0 -27 18 -30 19 -3 21 -8 19 -45 -3 -38 -1 -43 17 -43 15 0 21 6 21 23 0
12 6 32 14 43 8 11 16 31 19 44 2 14 5 -3 6 -37 0 -35 6 -63 11 -63 6 0 10
-16 10 -36 0 -34 1 -36 28 -29 15 3 30 10 34 14 5 4 12 74 18 156 5 81 12 150
13 152 2 2 12 -62 23 -142 11 -87 23 -145 29 -145 8 0 4 53 -12 168 -27 199
-27 233 -4 337 l18 80 6 -109 c4 -60 7 -146 7 -190 0 -99 30 -387 41 -401 5
-5 9 8 9 31 l0 41 42 -1 43 -1 11 75 c6 41 12 67 13 58 1 -18 12 -23 23 -13 3
3 -1 34 -8 68 -13 62 -17 104 -7 80 14 -37 23 -1 23 100 0 61 7 162 16 224 15
97 20 112 38 117 11 3 23 3 26 0 3 -3 5 -95 5 -204 l0 -198 26 -9 26 -10 7
-189 c3 -104 10 -201 14 -217 7 -26 8 -27 30 -11 23 16 23 17 19 188 -3 94 -3
158 -1 141 7 -44 13 -57 22 -51 5 3 4 38 -3 78 -7 39 -9 79 -5 87 4 9 15 81
24 161 22 188 27 213 37 203 5 -5 12 -41 16 -79 4 -39 13 -75 21 -84 12 -12
14 -40 8 -170 -4 -85 -9 -176 -13 -202 -4 -33 -2 -48 6 -48 6 0 11 17 11 40 0
22 4 40 9 40 4 0 11 -48 15 -107 11 -164 16 -194 35 -191 9 2 16 8 16 13 0 6
-6 90 -14 188 -13 166 -11 299 6 482 16 183 19 168 26 -135 8 -345 12 -390 32
-390 7 0 15 -6 18 -12 9 -28 19 4 26 89 5 48 9 78 10 66 0 -13 5 -23 10 -23 6
0 7 16 4 35 -4 23 -2 35 6 35 6 0 12 20 12 48 1 46 2 45 10 -17 4 -35 11 -66
14 -69 17 -17 17 27 2 186 -22 226 -23 362 -2 362 11 0 15 12 15 50 0 31 4 50
11 50 9 0 10 -23 5 -80 -8 -96 1 -160 21 -160 11 0 13 -9 9 -37 -3 -21 -8 -83
-11 -138 -3 -55 -8 -117 -11 -137 -5 -34 -3 -38 15 -38 12 0 21 -3 21 -7 0 -5
-11 -73 -25 -153 -14 -80 -25 -150 -25 -157 0 -11 50 -33 76 -33 8 0 14 10 14
23 0 40 11 65 31 70 17 5 19 15 19 96 0 83 2 91 19 91 25 0 28 -12 37 -153 l7
-119 36 7 c74 13 74 13 67 63 -3 25 -8 129 -10 231 -2 102 -1 142 1 88 l4 -98
42 3 42 3 5 297 c3 163 9 300 14 305 5 5 6 -33 2 -89 -5 -80 -4 -98 7 -98 20
0 31 -177 17 -263 -8 -50 -50 -414 -50 -433 0 -2 9 -4 19 -4 16 0 21 9 26 48
3 26 10 63 15 82 7 32 8 31 9 -22 1 -31 6 -60 13 -64 8 -5 10 30 6 142 -3 82
-3 140 1 129 9 -22 20 54 22 140 0 28 9 97 19 155 l19 105 -5 -125 c-3 -69
-10 -165 -15 -215 -14 -148 -13 -174 14 -184 14 -6 24 -5 28 3 8 13 28 232 39
416 6 96 15 155 31 205 l23 70 13 -245 c7 -135 22 -321 33 -415 31 -249 30
-245 51 -245 22 0 22 -7 5 145 -12 106 -11 132 3 225 10 58 19 105 22 104 2 0
15 -3 28 -7 l24 -6 -6 -151 c-5 -116 -3 -150 6 -147 8 2 13 32 15 80 2 56 6
77 16 77 17 0 26 -53 26 -158 0 -81 1 -83 23 -80 13 2 21 9 19 18 -2 8 -1 72
3 142 7 119 8 127 25 118 36 -19 42 -12 39 48 -5 103 1 226 10 217 5 -6 30
-114 55 -240 47 -233 64 -303 65 -275 1 9 -24 137 -55 285 -66 323 -69 340
-58 402 l8 48 7 -40 c3 -24 7 28 9 125 1 91 5 179 9 195 7 28 8 27 19 -23 14
-63 15 -83 4 -65 -5 8 -8 -8 -8 -36 0 -28 3 -48 8 -45 4 3 8 16 8 29 0 13 5
27 10 30 13 8 13 -54 -2 -189 l-12 -109 24 -19 c15 -12 26 -15 28 -9 2 6 13
11 24 11 20 0 21 4 15 75 -7 78 -8 76 36 79 7 1 11 -10 10 -29 -1 -16 -10
-118 -19 -225 -14 -162 -15 -224 -6 -364 6 -92 13 -170 16 -173 3 -3 26 -8 51
-11 l46 -5 -4 209 c-2 115 -2 158 0 96 3 -90 7 -112 18 -112 8 0 15 -7 15 -15
0 -8 3 -15 8 -15 22 1 30 25 36 115 4 55 11 102 16 105 4 3 15 59 24 124 9 66
19 122 22 125 3 3 3 -45 -1 -107 -7 -96 -5 -112 7 -112 13 0 16 31 20 197 3
109 9 205 12 214 5 11 15 15 27 12 10 -3 19 -6 19 -7 0 0 9 -47 20 -104 11
-56 20 -127 20 -157 0 -29 5 -55 10 -57 12 -4 60 -272 60 -335 0 -24 5 -43 11
-43 7 0 9 36 6 108 -3 59 -3 87 -1 62 7 -75 13 -90 35 -90 17 0 20 5 16 23 -3
12 -7 67 -8 122 l-2 100 34 12 c41 14 66 16 73 5 3 -5 -1 -76 -9 -158 -22
-223 -23 -214 24 -214 22 0 52 -5 67 -10 15 -6 29 -9 31 -6 3 2 6 107 9 233 5
309 16 543 24 513 4 -14 4 -168 2 -343 l-5 -317 46 0 c47 0 47 0 53 -40 7 -44
24 -55 24 -14 0 19 7 28 28 35 l29 10 6 157 c7 163 -7 511 -24 572 -13 50 -11
107 7 228 26 171 37 151 32 -60 -4 -155 -3 -188 8 -188 11 0 14 23 16 98 l2
97 5 -95 c3 -52 2 -160 -2 -239 -5 -99 -5 -146 3 -151 7 -4 8 -36 2 -99 -7
-85 -2 -128 11 -81 3 11 11 20 17 20 13 0 12 -17 -6 -222 -6 -64 -5 -68 14
-68 25 0 24 -2 48 215 12 111 14 189 9 300 -4 83 -4 147 1 143 8 -9 34 -196
29 -212 -2 -6 -6 -46 -10 -88 -5 -72 -4 -77 16 -83 16 -5 19 -12 15 -30 -4
-15 -1 -27 7 -32 8 -4 17 -15 20 -23 4 -12 6 -11 6 3 1 9 6 17 11 17 7 0 10
51 9 145 0 80 7 222 17 315 18 170 18 171 41 165 l23 -5 0 126 c0 122 14 209
31 198 5 -3 9 -16 9 -30 0 -17 5 -24 19 -24 18 0 19 -6 16 -72 -3 -74 -19
-151 -75 -378 -26 -104 -32 -155 -39 -305 -5 -100 -4 -184 0 -190 5 -5 9 43 9
111 0 166 13 257 71 499 28 116 53 216 55 224 11 34 18 -9 23 -141 4 -96 10
-143 18 -145 8 -3 13 11 15 39 2 29 10 -8 25 -117 12 -89 20 -179 16 -202 -6
-45 10 -73 43 -73 14 0 16 8 12 56 -3 31 3 95 13 147 15 79 17 86 18 46 1 -42
4 -48 28 -53 16 -5 29 -3 33 5 5 7 11 2 16 -15 7 -18 13 -23 23 -17 11 7 10
36 -8 182 -13 111 -17 175 -11 177 6 2 10 11 11 20 0 11 4 8 10 -8 6 -14 8
-46 5 -71 -2 -26 0 -51 5 -56 6 -6 17 -152 26 -339 9 -181 20 -333 25 -339 7
-7 8 24 4 90 -10 157 -27 618 -22 622 2 2 11 -27 21 -64 39 -153 54 -231 55
-280 0 -29 4 -53 8 -53 5 0 14 -48 21 -107 7 -60 16 -109 22 -111 5 -2 9 -15
9 -28 0 -17 6 -24 20 -24 19 0 20 7 20 105 0 105 0 105 24 105 26 0 24 9 41
-133 l6 -44 45 2 c24 1 47 5 51 8 3 3 0 80 -7 169 -13 181 -1 512 23 623 l13
60 7 -79 c4 -43 7 -118 7 -166 0 -60 4 -91 13 -99 22 -18 41 -243 33 -397 -5
-89 -4 -134 3 -134 18 0 31 37 31 89 0 48 1 50 36 61 l36 12 -6 57 c-4 31 -9
73 -12 95 -4 27 -3 36 5 32 7 -5 11 2 11 17 0 17 7 26 22 30 33 9 38 -9 31
-98 -3 -44 -7 -86 -7 -94 -1 -7 16 -19 36 -26 l36 -13 7 76 c14 160 23 136 24
-63 1 -157 5 -204 16 -219 18 -24 16 -33 52 199 l30 190 13 -120 c17 -162 23
-198 36 -202 8 -3 13 46 18 149 4 84 9 191 13 238 6 81 7 83 19 55 15 -34 17
-135 5 -208 -6 -38 -5 -49 7 -56 10 -6 17 -34 22 -90 11 -125 23 -111 16 19
-4 66 -3 134 3 160 9 40 10 35 8 -47 l-2 -91 45 -5 c25 -2 48 -2 53 0 4 2 7
37 7 78 0 124 17 93 25 -45 4 -72 11 -132 16 -136 5 -3 9 12 9 33 0 74 -21
318 -30 352 -11 41 6 121 25 121 9 0 15 26 20 81 4 44 9 79 11 77 7 -7 24
-137 25 -194 1 -32 -2 -98 -6 -146 l-7 -87 26 -7 c17 -4 26 -13 26 -25 0 -29
18 -22 23 8 2 16 5 -14 6 -66 1 -102 -1 -100 66 -74 16 6 17 -1 10 -80 -4 -59
-3 -87 4 -87 6 0 12 29 13 68 l4 67 14 -32 c8 -18 20 -33 28 -33 29 0 42 28
42 94 0 64 1 66 25 66 14 0 25 5 25 10 0 6 4 10 8 10 5 0 17 -70 27 -155 10
-85 20 -155 24 -155 35 1 35 32 7 285 0 6 11 11 27 13 20 3 27 9 27 25 0 28
-38 322 -47 362 -9 42 -5 147 6 158 5 5 11 -34 15 -95 9 -127 23 -191 48 -207
23 -14 22 -15 3 149 -8 69 -15 154 -14 190 l0 65 26 -80 c18 -57 26 -105 27
-167 0 -47 4 -90 9 -94 4 -4 7 -72 7 -151 0 -136 1 -143 20 -143 17 0 20 7 20
39 0 22 5 43 10 46 7 4 11 -76 12 -232 2 -182 3 -202 5 -85 2 90 7 152 13 152
6 0 10 -11 10 -25 0 -20 5 -25 26 -25 19 0 24 4 20 18 -2 9 -8 56 -12 105 l-6
87 25 0 c22 0 26 -5 30 -37 2 -21 2 -5 0 35 -4 58 -2 72 10 72 16 0 27 -58 27
-139 0 -25 5 -53 11 -61 7 -11 9 -1 5 35 -3 28 -8 91 -10 140 l-4 90 10 -73
c9 -60 14 -72 29 -72 23 0 23 -4 4 215 -8 94 -15 227 -15 298 0 123 1 127 21
127 14 0 19 -5 16 -14 -3 -8 -9 -47 -13 -87 -6 -62 -5 -71 8 -66 13 4 17 -12
23 -103 3 -60 3 -134 0 -165 -6 -44 -4 -59 6 -66 11 -7 14 -53 13 -239 0 -184
2 -230 13 -230 7 0 13 1 13 3 1 1 5 94 10 207 19 424 30 594 40 604 7 7 10 2
10 -14 0 -14 5 -140 11 -280 9 -205 8 -288 -3 -422 -11 -141 -11 -168 0 -173
32 -12 39 21 56 245 23 291 25 303 55 310 23 5 25 9 22 67 -1 38 2 64 9 68 9
5 10 29 5 80 -8 91 22 282 37 230 4 -16 13 -79 19 -140 6 -60 16 -113 22 -116
5 -4 18 -49 29 -100 14 -72 19 -137 18 -279 0 -102 -3 -204 -6 -228 -4 -23 -3
-90 1 -147 5 -80 10 -105 21 -105 10 0 14 13 14 44 0 29 4 44 13 43 57 -2 53
-14 61 200 4 109 11 232 15 273 l8 75 2 -62 c1 -50 5 -64 20 -73 39 -20 41
-14 42 138 l2 147 11 -95 c11 -94 11 -95 37 -92 26 3 27 3 39 -98 7 -56 14
-99 17 -96 3 2 -1 48 -8 102 -12 101 -7 302 12 494 6 52 11 121 12 152 1 31 6
53 10 49 17 -17 35 -322 35 -574 0 -177 3 -262 11 -270 8 -8 11 38 11 173 0
101 2 181 5 178 3 -3 15 -47 27 -99 16 -71 23 -144 28 -299 l6 -205 2 190 c2
167 -1 207 -23 320 -25 128 -44 336 -26 285 5 -14 7 -43 4 -65 -3 -25 -1 -35
4 -27 11 15 23 -43 53 -263 29 -208 30 -215 39 -215 5 0 14 6 20 14 9 11 7 51
-9 172 -11 88 -23 176 -26 197 -5 30 -4 37 10 37 11 0 16 9 16 28 0 21 2 24
10 12 5 -8 10 -66 10 -129 0 -85 3 -117 14 -125 16 -13 36 -229 36 -394 0 -95
1 -102 20 -102 19 0 20 7 20 144 0 80 4 146 9 148 5 2 13 90 17 196 5 129 11
192 18 192 8 0 11 -73 10 -247 l-1 -248 8 240 c9 284 16 362 35 369 16 6 19
-39 22 -446 1 -111 6 -178 12 -178 6 0 10 75 11 203 0 121 4 194 9 181 11 -27
30 -252 30 -353 0 -43 3 -93 6 -110 6 -30 9 -31 55 -31 46 0 49 -2 49 -25 0
-14 4 -25 9 -25 10 0 28 112 37 235 12 152 21 148 16 -8 -3 -91 -1 -147 5
-147 12 0 23 246 23 533 0 120 4 216 8 213 5 -3 12 -115 16 -248 3 -134 9
-269 12 -300 6 -52 9 -58 29 -58 54 0 51 -29 48 528 -1 359 1 506 8 482 10
-36 14 -297 7 -537 -3 -143 -5 -139 54 -147 27 -4 28 -8 13 -66 -30 -116 -65
-410 -49 -410 5 0 20 75 33 167 29 203 42 249 38 140 -1 -42 1 -77 5 -77 5 0
8 14 8 30 0 17 5 30 10 30 6 0 11 -34 12 -77 4 -124 3 -146 -5 -190 -7 -42 -7
-43 33 -63 30 -16 41 -17 44 -8 3 7 19 94 36 193 18 99 34 182 36 184 11 12
16 -67 11 -165 l-6 -114 40 0 c23 0 42 5 44 13 3 6 9 98 14 202 5 105 14 201
20 215 8 21 10 15 10 -37 1 -58 3 -63 22 -63 22 0 22 0 15 183 -4 101 -11 200
-15 219 -7 29 -2 57 24 135 l32 98 8 -50 c13 -76 11 -182 -7 -380 -9 -99 -20
-269 -24 -377 -7 -195 -6 -198 14 -198 19 0 20 8 27 128 3 70 10 136 15 147 5
11 14 60 20 110 6 49 14 92 17 95 3 3 3 -21 -1 -52 -3 -31 -2 -67 3 -80 5 -13
17 -89 27 -170 9 -82 20 -148 24 -148 4 0 1 39 -6 88 -18 119 -18 134 4 130
15 -3 18 8 22 87 l5 90 8 -80 c14 -142 19 -175 27 -170 4 2 5 16 2 31 -3 16 1
29 9 35 19 11 27 -18 28 -101 1 -36 4 -89 8 -118 6 -51 7 -53 32 -47 14 4 30
7 36 8 15 3 22 43 24 124 0 40 6 73 12 75 16 5 38 273 39 471 0 164 1 177 18
177 17 0 18 -14 18 -212 -1 -165 2 -212 12 -211 9 2 12 -16 12 -67 0 -40 4
-70 10 -70 6 0 10 -11 10 -24 0 -14 5 -28 10 -31 6 -3 10 -17 10 -31 0 -13 4
-24 10 -24 5 0 10 -33 12 -72 2 -57 6 -73 18 -73 12 0 16 19 18 104 l3 103 43
-6 44 -7 4 278 c3 153 8 286 12 296 5 9 14 17 22 17 7 0 16 16 21 37 l7 38 7
-45 c4 -25 8 -80 8 -123 1 -74 2 -78 27 -87 40 -16 44 -13 44 32 0 26 4 38 9
33 5 -6 14 -77 20 -160 6 -82 15 -163 21 -180 7 -23 9 -10 5 55 -21 353 -24
435 -17 438 4 1 5 27 2 57 -3 30 -3 55 1 55 4 0 11 -36 15 -80 6 -70 9 -80 26
-80 18 0 19 -5 13 -57 -3 -32 -9 -70 -11 -85 -4 -21 -2 -28 9 -28 9 0 18 -6
20 -12 4 -10 6 -10 6 0 1 6 7 12 15 12 24 0 30 -82 17 -259 -7 -91 -14 -176
-16 -187 -3 -14 1 -24 12 -28 9 -4 17 -5 18 -4 2 2 9 86 16 187 12 167 15 184
32 189 18 5 19 12 13 115 -6 85 -4 112 6 118 9 6 13 48 14 161 1 194 2 208 12
208 12 0 42 -168 42 -235 0 -94 22 -239 37 -252 12 -9 14 -33 8 -132 -6 -88
-4 -121 4 -121 7 0 11 -23 11 -65 0 -37 4 -65 10 -65 6 0 10 53 10 140 0 118
2 140 15 140 8 0 15 -3 15 -7 0 -5 7 -84 15 -178 8 -93 15 -173 15 -177 0 -5
7 -8 16 -8 14 0 16 8 10 47 -12 88 -19 367 -12 456 6 63 12 87 21 87 9 0 16
17 20 48 4 26 8 52 11 57 5 14 -6 -291 -12 -337 -5 -35 -4 -38 19 -38 38 0 57
-10 57 -31 0 -10 5 -19 10 -19 6 0 10 -20 10 -44 0 -28 5 -46 14 -49 11 -4 15
22 19 141 3 81 12 176 20 212 l15 65 1 -176 1 -176 34 -10 34 -11 4 172 c2
120 -2 214 -14 316 -26 221 -26 226 38 396 87 234 176 495 170 501 -3 3 15 45
40 94 24 49 42 89 39 89 -14 0 -139 -281 -210 -470 -43 -113 -81 -212 -86
-220 -5 -9 -7 22 -3 75 3 50 1 121 -5 158 -8 58 -6 89 15 210 13 78 24 178 24
222 0 44 10 163 21 265 19 159 26 193 50 243 16 31 27 57 25 57 -12 0 -77
-104 -87 -142 -13 -42 -13 -41 -21 79 -5 68 -12 140 -16 160 -5 23 -3 68 5
113 7 47 13 200 15 408 3 312 2 330 -13 295 -15 -36 -35 -163 -64 -411 -7 -62
-15 -115 -18 -118 -2 -3 -24 40 -47 95 l-43 100 23 93 c12 51 48 174 81 273
32 99 74 252 94 340 51 219 107 404 155 503 21 45 37 82 35 82 -3 0 -25 -39
-49 -87 -51 -104 -121 -313 -171 -514 -20 -79 -60 -214 -90 -299 -30 -86 -73
-224 -94 -309 -22 -84 -42 -155 -44 -157 -5 -5 -30 237 -26 251 2 6 -3 34 -9
63 -7 29 -12 74 -13 100 -1 44 -3 41 -25 -48 -32 -128 -51 -267 -60 -433 -4
-92 -11 -140 -19 -145 -7 -4 -15 -14 -19 -22 -3 -8 -4 18 -1 59 3 41 7 115 10
165 l4 91 -14 -115 c-7 -63 -14 -131 -15 -150 -2 -32 -3 -33 -10 -10 -4 14 -8
50 -9 80 -1 30 -8 87 -16 125 -8 39 -15 102 -15 142 0 39 -4 83 -9 96 -7 19
-1 50 24 133 19 59 33 110 30 112 -2 2 -16 -36 -31 -84 -14 -49 -29 -93 -32
-98 -9 -16 -20 28 -11 45 12 24 101 321 97 325 -2 2 -23 -56 -47 -129 -65
-197 -66 -198 -65 -44 1 73 0 114 -2 92 -2 -22 -7 -69 -10 -105 l-7 -65 -15
45 c-11 33 -15 96 -15 240 l0 195 -7 -155 c-10 -201 -21 -310 -30 -310 -13 0
-16 77 -9 194 4 61 8 167 8 236 2 232 39 478 79 524 16 18 16 18 -5 7 -24 -12
-80 -170 -104 -289 -6 -35 -18 -66 -25 -69 -8 -3 -14 -10 -14 -17 -1 -15 -80
-139 -86 -133 -3 3 4 23 15 46 12 22 21 44 21 48 -1 4 -11 -12 -24 -36 -22
-42 -24 -43 -34 -24 -10 17 -4 47 27 155 22 73 43 142 47 153 4 11 4 17 0 14
-3 -3 -28 -71 -55 -150 l-48 -144 -16 32 c-10 18 -17 40 -17 51 0 10 -7 19
-15 19 -18 0 -18 2 0 -33 9 -18 15 -55 14 -99 0 -48 -3 -64 -9 -50 -6 15 -9 5
-9 -35 -1 -77 -13 -110 -62 -177 -24 -32 -45 -60 -46 -62 -2 -2 -5 -2 -8 1 -3
2 6 38 20 78 14 40 23 75 21 77 -2 2 -14 -26 -27 -62 l-24 -66 -17 38 c-24 54
-22 83 16 236 31 127 36 140 80 191 25 30 46 57 46 61 0 4 -9 -3 -20 -16 -10
-13 -19 -19 -20 -13 0 5 9 20 20 32 11 12 20 25 20 31 0 11 98 103 179 166 34
26 61 50 61 52 0 14 -225 -150 -265 -193 l-50 -55 8 93 c6 63 16 110 33 146
33 72 30 80 -5 12 -16 -30 -32 -75 -36 -100 -22 -140 -45 -211 -85 -261 -22
-28 -40 -49 -40 -46 0 2 9 30 20 62 11 32 18 60 16 62 -3 3 -10 -14 -56 -139
-12 -32 -25 -58 -29 -58 -4 0 -12 10 -18 23 -8 17 -5 54 13 147 38 205 29 209
-16 6 -20 -90 -24 -98 -36 -81 -8 11 -14 44 -14 79 0 90 36 350 61 434 11 41
19 76 16 78 -2 3 -10 -17 -17 -43 -7 -26 -17 -52 -21 -57 -5 -6 -9 -19 -9 -30
0 -22 -98 -316 -110 -329 -4 -4 -30 18 -58 51 l-51 59 19 108 c11 60 20 118
19 129 -1 19 -26 -89 -43 -188 l-7 -38 -23 21 c-13 13 -31 50 -41 87 -10 36
-19 63 -22 61 -2 -3 12 -65 31 -138 53 -201 55 -234 18 -312 l-30 -65 -1 -242
c0 -133 -4 -247 -9 -254 -5 -6 -14 -43 -21 -81 -23 -136 -32 -108 -27 85 5
202 3 193 -16 -73 -11 -163 -13 -176 -26 -152 -11 22 -13 60 -7 189 3 88 10
186 15 216 16 95 23 247 11 230 -8 -11 -11 -3 -12 35 -3 110 -15 106 -17 -5
-1 -63 -7 -142 -13 -175 -6 -33 -12 -82 -13 -110 -4 -73 -18 -167 -23 -161 -3
3 -14 49 -24 103 -10 54 -45 231 -79 393 l-61 294 22 56 c12 30 54 116 93 190
73 138 88 170 82 170 -7 0 -166 -279 -186 -325 -11 -25 -21 -45 -23 -45 -2 0
-16 47 -32 105 -15 58 -30 104 -32 101 -2 -2 9 -56 26 -120 l30 -115 -33 -76
c-38 -86 -46 -98 -46 -64 0 35 -47 205 -72 258 -11 25 -20 57 -20 71 l1 25 -8
-25 c-5 -14 -9 -37 -10 -52 -1 -14 -12 -39 -25 -55 -12 -15 -35 -65 -50 -110
-15 -46 -31 -83 -35 -83 -5 0 -20 17 -35 38 l-26 39 50 94 c66 125 64 140 -3
19 -42 -76 -56 -94 -72 -92 -16 2 -17 1 -5 -7 13 -9 12 -16 -10 -56 l-25 -46
-8 53 c-5 29 -7 123 -4 208 2 85 3 151 1 145 -2 -5 -12 -75 -24 -155 -12 -86
-34 -188 -54 -250 -37 -116 -42 -106 -26 50 6 52 17 162 26 244 l15 150 75
130 c42 72 90 146 107 165 31 33 31 33 4 15 -15 -10 -71 -79 -124 -153 l-96
-135 -29 -140 c-16 -78 -40 -211 -53 -296 -25 -156 -81 -397 -97 -415 -5 -5
-12 -5 -19 2 -9 9 -5 24 16 60 l27 48 -34 -39 c-29 -33 -36 -37 -41 -22 -15
39 -5 132 38 341 62 299 63 311 5 90 -28 -104 -48 -172 -45 -150 3 22 9 135
14 250 5 116 13 248 17 295 4 47 4 83 2 80 -3 -3 -15 -113 -27 -245 -25 -276
-51 -512 -61 -539 -12 -34 -29 30 -39 149 l-10 110 4 -100 c2 -77 0 -94 -8
-75 -5 14 -33 75 -60 135 l-50 110 32 60 c30 57 25 55 -26 -10 l-22 -29 -46
98 c-31 68 -43 106 -40 124 4 20 3 22 -3 8 -7 -15 -14 -6 -39 50 -16 38 -43
111 -58 162 -16 50 -30 90 -32 88 -7 -7 48 -188 84 -274 33 -80 33 -84 20
-130 l-14 -47 -11 40 c-6 22 -23 90 -37 150 -30 128 -60 196 -140 320 -83 128
-85 126 -12 -15 80 -154 91 -186 112 -330 9 -63 28 -158 42 -210 21 -80 24
-108 19 -176 -8 -108 -16 -149 -27 -132 -5 7 -9 31 -10 53 -2 33 -3 35 -6 11
-5 -29 -5 -29 -34 20 -39 67 -36 48 6 -36 39 -78 42 -107 19 -194 -21 -75 -34
-92 -35 -46 0 19 -4 53 -9 75 -9 37 -9 36 -5 -15 3 -30 8 -77 11 -105 4 -27 4
-48 1 -44 -12 10 -48 299 -42 337 4 29 3 33 -5 17 -9 -17 -10 -15 -6 10 5 29
-15 160 -35 235 -6 19 -11 116 -13 215 -3 99 -5 191 -7 205 -3 32 -16 -130
-25 -326 l-7 -151 -54 -27 c-31 -15 -56 -26 -58 -24 -1 2 -7 39 -14 83 -16
117 -23 149 -31 155 -4 3 -22 42 -40 88 -27 70 -30 86 -19 100 11 14 11 15 -1
4 -12 -10 -22 -5 -59 30 l-45 43 37 -47 c20 -25 37 -49 37 -52 0 -4 -17 -32
-39 -64 -80 -119 -94 -159 -130 -376 -20 -120 -30 -150 -33 -105 -1 13 -4 -1
-8 -31 l-7 -55 -1 45 c-1 41 3 71 22 155 l7 30 -14 -30 -14 -30 -4 55 c-6 68
13 202 35 253 10 22 13 36 8 33 -13 -8 -58 -122 -69 -172 l-8 -39 -5 60 c-3
33 -6 -39 -7 -160 -2 -220 -16 -346 -34 -298 -4 12 -13 66 -19 120 -12 107
-29 223 -34 232 -2 3 7 69 20 146 13 77 28 176 34 220 9 67 32 176 56 270 14
53 -18 -17 -43 -95 -15 -47 -29 -88 -32 -92 -3 -4 -6 66 -5 155 1 89 -2 151
-7 137 -4 -14 -8 -56 -8 -95 -1 -38 -8 -119 -16 -180 -16 -124 -117 -645 -125
-645 -3 0 -17 10 -33 23 -24 19 -29 32 -38 112 -6 50 -21 124 -34 165 -27 84
-32 69 -10 -30 20 -91 18 -234 -4 -374 -14 -82 -18 -144 -14 -200 3 -45 0 -92
-5 -106 -10 -25 -10 -25 -28 15 -15 34 -18 80 -21 298 -4 237 -3 267 18 363
12 58 26 107 30 110 5 3 9 16 9 30 0 48 28 90 126 189 74 74 85 88 44 55 -86
-68 -160 -142 -175 -175 -31 -68 -47 -114 -75 -221 -25 -94 -30 -132 -31 -236
0 -67 -4 -142 -7 -165 l-7 -43 -93 174 -93 175 74 153 c40 84 111 214 156 288
98 159 97 158 83 145 -24 -22 -181 -278 -247 -403 -46 -88 -72 -128 -78 -119
-5 7 -6 3 -2 -10 4 -14 2 -23 -5 -23 -6 0 -9 -4 -6 -9 6 -8 -30 -107 -44 -124
-12 -14 -40 82 -40 135 0 30 8 65 21 89 11 23 19 43 16 45 -2 2 -12 -15 -23
-38 l-19 -42 -12 64 -12 65 5 -80 c4 -67 2 -88 -15 -125 -11 -25 -20 -54 -20
-65 0 -11 7 0 15 25 24 69 34 71 34 6 0 -53 -1 -57 -17 -45 -15 13 -15 12 -2
-11 11 -19 13 -47 9 -110 l-5 -85 -20 80 c-20 83 -25 224 -12 355 4 45 3 54
-3 31 -4 -19 -11 -70 -15 -113 -4 -44 -9 -77 -12 -75 -6 7 -43 236 -43 270 0
40 22 83 76 147 38 46 34 43 -25 -17 -69 -71 -89 -78 -77 -25 4 18 4 22 -2 13
-7 -10 -12 -7 -21 15 l-11 29 7 -30 c4 -16 6 -41 5 -55 -2 -42 -120 -426 -125
-410 -10 30 -40 216 -39 245 0 16 -3 32 -7 35 -10 7 -41 165 -41 212 0 20 -4
39 -9 42 -4 3 -19 53 -31 110 -13 58 -25 104 -27 102 -2 -2 10 -74 26 -160 30
-153 42 -321 20 -284 -5 10 -34 91 -63 180 -102 309 -170 462 -223 502 l-38
29 37 -39z m-1682 -519 l19 -76 -30 -84 c-17 -47 -35 -82 -40 -79 -5 3 -9 -5
-9 -18 0 -28 -41 -128 -52 -128 -4 0 -8 10 -8 23 0 12 -4 28 -9 35 -5 9 -8 -8
-7 -43 0 -33 3 -49 7 -38 7 17 8 17 8 0 1 -27 -33 -68 -48 -57 -6 6 -5 3 2 -5
14 -16 11 -89 -3 -80 -5 3 -6 -3 -4 -12 2 -10 -1 -28 -8 -40 -59 -100 -81
-133 -85 -129 -3 3 4 29 15 58 25 65 29 83 52 230 10 64 28 143 39 175 11 32
41 123 66 203 61 194 55 178 66 158 5 -10 18 -51 29 -93z m339 -113 c1 -73 -3
-111 -9 -107 -6 4 -10 66 -9 158 1 110 4 140 10 107 4 -25 8 -96 8 -158z
m-130 58 c27 -52 59 -131 71 -174 19 -70 21 -91 14 -180 -9 -101 -9 -101 -15
-41 l-6 60 -1 -64 c-2 -72 -14 -72 -30 -1 -6 29 -10 36 -11 20 -1 -14 8 -51
19 -83 22 -63 27 -112 9 -101 -7 4 -7 -1 1 -16 13 -25 4 -118 -10 -104 -5 5
-26 59 -48 119 -22 61 -55 144 -75 185 -26 56 -40 104 -52 188 l-17 112 48 43
c26 23 55 48 63 55 28 24 -10 2 -61 -35 -27 -19 -48 -32 -48 -29 0 4 18 43 41
88 31 61 43 78 50 67 6 -8 32 -57 58 -109z m3257 -131 c34 -134 30 -248 -13
-332 l-26 -52 -10 30 c-5 17 -9 75 -10 129 -1 88 -2 95 -12 65 l-12 -34 -30
94 -31 94 18 42 c10 24 31 62 46 86 l27 44 13 -31 c7 -17 25 -78 40 -135z
m-1291 -110 c-25 -112 -51 -228 -57 -256 -12 -57 -23 -61 -31 -11 -5 36 95
437 121 483 18 30 8 -36 -33 -216z m-626 113 l50 -99 -20 -93 c-10 -51 -19
-96 -19 -99 0 -3 -14 15 -30 41 -23 36 -30 61 -31 100 -2 52 -2 52 -8 13 -5
-34 -8 -37 -17 -22 -8 13 -7 43 3 105 7 48 13 102 13 120 0 17 2 32 4 32 3 0
27 -44 55 -98z m466 -80 c-10 -10 -25 51 -24 96 1 47 1 46 15 -22 8 -38 12
-72 9 -74z m1976 -24 l31 -77 -22 -31 c-12 -16 -23 -30 -24 -30 -2 0 -15 34
-30 75 -24 67 -25 79 -15 121 14 53 15 51 60 -58z m-3943 5 c8 -62 6 -71 -14
-55 -5 4 -2 0 6 -8 9 -9 21 -51 29 -100 7 -47 19 -105 27 -129 8 -24 23 -74
34 -112 l18 -68 -28 -36 c-24 -30 -29 -33 -33 -18 -3 13 -5 11 -6 -7 -1 -14
-10 -36 -21 -50 l-19 -25 -10 27 c-6 15 -13 69 -17 120 -3 51 -10 131 -16 178
-15 131 -13 168 12 268 14 52 26 90 27 85 2 -4 7 -36 11 -70z m2213 -58 c17
-130 15 -300 -4 -370 l-14 -50 -21 48 c-27 61 -30 209 -8 352 9 55 16 114 16
130 1 58 17 2 31 -110z m1069 99 c0 -8 11 -47 25 -87 22 -63 24 -78 15 -122
-6 -27 -12 -68 -13 -90 -2 -22 -4 2 -5 54 -2 104 -11 120 -13 23 -1 -34 -5
-62 -8 -62 -4 0 -15 16 -25 35 -16 29 -18 47 -12 117 9 116 17 159 27 152 5
-3 9 -12 9 -20z m1565 -119 c21 -128 19 -289 -3 -340 l-18 -40 -13 50 c-7 28
-22 65 -33 83 -26 42 -24 62 29 362 l6 35 8 -30 c5 -16 16 -70 24 -120z
m-5950 -14 c9 -78 13 -150 9 -160 -4 -9 -6 -31 -5 -50 2 -18 -1 -61 -5 -95
l-8 -61 -7 50 c-7 53 -12 471 -5 464 3 -2 12 -69 21 -148z m5890 72 c-12 -46
-34 -193 -35 -228 0 -18 -1 -18 -17 -2 -15 14 -16 22 -6 48 7 17 10 36 7 44
-3 7 1 26 9 42 8 15 12 33 10 40 -5 13 23 83 33 83 3 0 3 -12 -1 -27z m797
-99 c-17 -100 -20 -107 -32 -85 -11 21 -9 36 16 113 15 48 29 86 31 84 2 -1
-5 -52 -15 -112z m-182 40 c0 -44 -15 -23 -34 46 l-7 25 20 -24 c12 -13 21
-34 21 -47z m-876 -101 c-14 -24 -14 -25 0 -9 15 19 16 19 16 -13 0 -30 -24
-91 -36 -91 -3 0 -4 18 -2 39 2 22 -1 37 -5 34 -5 -3 -6 5 -2 18 17 52 35 125
37 149 1 14 3 -3 5 -37 3 -45 -1 -70 -13 -90z m-5344 -28 c1 -27 -8 -81 -19
-120 l-21 -70 5 90 c3 50 8 122 12 160 6 67 7 69 14 30 4 -22 8 -62 9 -90z
m2406 50 l18 -76 -22 -22 c-20 -19 -24 -20 -33 -7 -12 18 2 180 16 180 2 0 11
-34 21 -75z m2035 23 c1 -29 4 -100 8 -158 9 -129 3 -157 -22 -104 -10 20 -33
55 -52 78 -38 47 -71 159 -51 175 17 14 100 61 109 61 4 0 7 -24 8 -52z m1844
-4 l41 -55 -22 -89 c-12 -48 -24 -94 -26 -102 -3 -7 -13 21 -23 62 -20 85 -32
240 -19 240 5 -1 27 -26 49 -56z m-4038 -93 c-4 -58 -14 -133 -22 -166 -9 -33
-22 -91 -30 -129 -24 -112 -24 -113 -46 -69 -27 51 -20 112 38 331 53 201 70
210 60 33z m2597 47 c33 -74 49 -130 90 -327 25 -117 23 -161 -9 -238 -9 -21
-26 -67 -38 -103 l-22 -65 -3 59 c-2 42 1 63 12 75 9 10 16 24 16 31 0 9 -5 7
-14 -5 -13 -18 -14 -17 -19 11 -3 16 -9 72 -12 124 -8 110 -22 186 -60 325
l-27 100 22 42 c13 24 25 43 27 43 2 0 19 -33 37 -72z m-3704 -40 c18 -55 34
-108 38 -116 4 -10 1 -13 -7 -8 -7 5 -3 -11 9 -35 36 -70 60 -169 47 -191 -20
-31 -27 -20 -27 45 0 34 -4 67 -8 74 -4 7 -6 -33 -4 -87 5 -128 -12 -133 -24
-7 -6 65 -9 80 -12 52 l-4 -40 -19 49 c-16 38 -21 84 -26 208 -3 87 -3 158 0
158 3 0 20 -46 37 -102z m2694 -5 c7 -107 24 -246 33 -278 4 -17 3 -18 -8 -7
-8 7 -17 39 -20 70 l-6 57 -1 -55 c-1 -34 4 -62 13 -74 17 -22 20 -66 6 -66
-5 0 -12 18 -16 40 -4 22 -10 40 -14 40 -9 0 -61 111 -61 130 0 28 55 248 61
244 3 -2 9 -47 13 -101z m1641 58 l18 -40 -44 -73 c-24 -40 -46 -75 -50 -78
-3 -3 -9 -12 -12 -20 -3 -8 -6 21 -6 66 -1 72 2 87 30 137 17 32 34 55 38 53
4 -3 16 -23 26 -45z m412 -303 c66 -351 87 -518 61 -487 -7 8 -37 45 -67 82
-29 36 -60 68 -67 71 -8 3 -14 16 -14 28 0 13 -14 104 -30 202 -17 98 -30 197
-30 219 0 36 69 240 79 231 2 -1 32 -157 68 -346z m-4107 278 c0 -5 -7 -3 -15
4 -8 7 -15 22 -15 34 1 20 2 20 15 -4 8 -14 14 -29 15 -34z m1495 -37 c35
-198 57 -396 62 -566 4 -125 2 -183 -5 -183 -7 0 -7 -10 0 -34 7 -23 7 -42 0
-62 -10 -28 -10 -29 -11 -4 -1 32 -27 151 -45 211 -12 39 -12 58 -1 125 14 81
13 111 -2 52 -6 -26 -10 -4 -16 97 -4 72 -11 186 -15 255 -8 125 -8 125 -11
40 l-2 -85 -15 56 c-14 53 -14 60 5 100 11 24 22 54 26 67 4 13 9 22 11 19 2
-2 11 -42 19 -88z m-539 -28 c-9 -43 -16 -92 -16 -109 0 -17 -5 -34 -11 -38
-8 -4 -10 7 -6 37 7 71 42 225 45 206 2 -10 -3 -53 -12 -96z m-1781 -108 c30
-107 56 -233 41 -198 -10 24 -116 393 -115 401 2 23 43 -87 74 -203z m3732 24
c-12 -66 -14 -70 -25 -49 -11 18 -11 43 -1 125 l13 102 13 -53 c11 -44 11 -65
0 -125z m-3934 83 c3 -30 2 -73 -1 -95 l-7 -40 -18 62 c-14 53 -15 70 -5 108
14 53 23 43 31 -35z m1547 14 c11 -36 20 -79 20 -94 0 -33 -88 -225 -89 -194
-1 12 8 66 19 119 11 53 20 128 20 166 0 38 2 69 5 69 2 0 13 -30 25 -66z
m1134 -335 c-1 -63 -9 -129 -24 -190 -32 -133 -39 -139 -40 -30 0 116 -31 330
-84 596 -4 17 29 -40 71 -125 l78 -155 -1 -96z m744 296 l0 -30 -8 30 c-4 17
-8 48 -8 70 l0 40 9 -40 c4 -22 8 -53 7 -70z m-2903 10 c-4 -43 -11 -72 -14
-66 -8 12 9 155 16 147 3 -2 2 -39 -2 -81z m1888 8 c-9 -25 -10 -23 -10 22 -1
41 1 46 9 28 7 -14 7 -31 1 -50z m918 -154 c-12 -77 -21 -162 -22 -187 -1 -45
-1 -46 -10 -17 -24 74 -39 138 -39 168 0 18 12 83 27 146 l28 114 18 -42 c18
-41 17 -46 -2 -182z m-2296 191 c3 -5 1 -10 -4 -10 -6 0 -11 5 -11 10 0 6 2
10 4 10 3 0 8 -4 11 -10z m3709 -46 c-7 -30 -18 -106 -24 -167 -6 -62 -14
-130 -17 -152 -3 -22 -8 -74 -12 -115 l-7 -75 -23 95 c-13 52 -25 131 -28 175
-5 78 -4 82 32 150 62 114 80 145 86 145 4 0 1 -25 -7 -56z m875 22 c27 -43
29 -180 5 -247 -9 -24 -22 -70 -30 -102 -13 -54 -43 -115 -45 -92 0 6 -4 48
-8 95 -7 73 -4 105 21 229 15 79 28 146 28 148 0 10 11 -1 29 -31z m-3590 -74
c10 -66 9 -81 -10 -155 -35 -130 -44 -125 -40 23 2 90 23 234 31 218 4 -7 12
-46 19 -86z m-1434 -7 c33 -88 34 -106 7 -192 -6 -17 -8 -34 -4 -37 3 -3 1 -6
-4 -6 -6 0 -19 30 -30 68 -16 53 -19 88 -16 165 2 55 6 96 9 93 4 -3 21 -44
38 -91z m2346 42 c6 -10 6 -24 1 -33 -7 -13 -11 -9 -16 17 -5 19 -10 28 -13
21 -3 -7 0 -27 6 -44 12 -33 5 -98 -10 -98 -5 0 -8 15 -7 33 1 17 -2 61 -6 97
l-8 65 22 -20 c12 -11 26 -28 31 -38z m-1861 1 c10 -24 21 -68 24 -98 3 -30 3
-48 0 -40 -38 93 -64 163 -64 171 0 24 23 5 40 -33z m615 -19 c8 -29 12 -56 9
-61 -3 -5 -1 -14 4 -21 10 -12 52 -164 52 -188 0 -45 -66 143 -75 213 -2 17
-13 40 -24 52 -19 20 -20 24 -5 45 20 28 22 26 39 -40z m-985 -133 c-10 -37
-21 -70 -23 -73 -2 -2 -10 11 -17 29 -6 18 -16 42 -22 53 -14 31 8 115 40 148
l27 28 7 -58 c6 -44 3 -73 -12 -127z m311 106 c-8 -35 -9 -33 -9 23 -1 46 1
55 8 37 6 -13 6 -38 1 -60z m2475 66 c-2 -7 -10 -46 -17 -85 -13 -79 -29 -97
-29 -34 0 36 32 131 44 131 3 0 4 -6 2 -12z m1042 -109 c-49 -111 -47 -81 9
106 6 18 7 17 14 -8 6 -21 0 -45 -23 -98z m-6208 39 c0 -74 -5 -73 -14 5 -4
36 -2 57 4 57 6 0 10 -27 10 -62z m6278 -56 l-3 -37 -12 48 c-8 36 -8 56 1 79
l11 30 3 -41 c2 -23 2 -58 0 -79z m187 -3 l-13 -84 -1 105 c-1 93 1 102 13 84
13 -17 13 -33 1 -105z m1402 84 c-3 -10 -5 -4 -5 12 0 17 2 24 5 18 2 -7 2
-21 0 -30z m-5405 -45 c3 -69 -12 -149 -33 -172 -13 -14 -11 106 3 180 6 35
15 64 19 64 4 0 9 -33 11 -72z m1573 -108 c6 -9 4 -11 -5 -5 -10 6 -12 2 -7
-16 7 -27 -12 -169 -23 -169 -28 0 -35 162 -13 320 l6 45 17 -80 c9 -45 20
-87 25 -95z m1283 -125 c13 -55 16 -84 9 -93 -5 -7 -12 -11 -14 -8 -6 6 -63
356 -62 381 0 11 11 -29 24 -90 13 -60 32 -146 43 -190z m-277 238 c-9 -16
-10 -14 -11 12 0 21 3 26 11 18 8 -8 8 -16 0 -30z m2075 -20 c-4 -31 -10 -69
-13 -83 -6 -23 -8 -22 -14 14 -6 37 14 126 28 126 3 0 3 -26 -1 -57z m738 -78
c-3 -33 -8 -73 -11 -89 -5 -28 -7 -26 -39 38 l-34 68 37 61 38 62 7 -40 c4
-22 5 -67 2 -100z m-3746 -47 l-3 -63 -16 45 c-13 36 -14 59 -8 109 5 34 12
68 16 74 9 14 15 -77 11 -165z m1216 92 c15 -33 27 -68 27 -78 0 -83 -3 -144
-5 -141 -3 3 -57 221 -71 282 -7 36 22 -2 49 -63z m-5384 -57 c-3 -71 -9 -134
-14 -142 -6 -10 -6 -12 2 -7 9 5 12 -7 12 -41 -1 -45 -2 -47 -16 -28 -8 11
-13 28 -10 38 2 9 0 15 -5 11 -11 -6 -10 -10 -9 135 1 90 5 119 18 137 9 13
19 24 22 24 3 0 3 -57 0 -127z m1709 6 c1 -15 -5 -32 -12 -38 -24 -20 -46 80
-30 139 6 22 8 20 24 -25 10 -28 18 -62 18 -76z m1096 7 l26 -98 -28 -64 c-32
-74 -36 -69 -48 44 -8 80 3 239 15 225 4 -4 20 -52 35 -107z m584 -11 c11 -56
21 -112 21 -126 0 -14 4 -29 10 -35 5 -5 12 -36 16 -68 6 -48 5 -58 -7 -54 -8
3 -15 21 -17 44 -1 21 -6 46 -9 54 -9 21 -43 206 -49 265 -8 77 10 35 35 -80z
m3837 24 c5 -72 2 -95 -19 -159 l-24 -75 -8 40 c-5 26 -2 76 9 145 9 58 16
116 16 130 0 16 3 21 10 14 6 -6 13 -49 16 -95z m-2646 -103 c-12 -12 -13 11
-2 120 l7 79 3 -94 c2 -56 -1 -98 -8 -105z m1999 94 c11 -70 11 -79 -11 -132
-12 -32 -27 -58 -32 -58 -5 0 -6 50 -2 122 11 194 22 211 45 68z m-5582 68
c-3 -8 -6 -5 -6 6 -1 11 2 17 5 13 3 -3 4 -12 1 -19z m4310 -164 c5 -138 4
-154 -10 -154 -9 0 -26 18 -37 39 l-20 40 22 130 c15 87 25 125 31 115 5 -8
11 -85 14 -170z m2460 164 c-3 -8 -6 -5 -6 6 -1 11 2 17 5 13 3 -3 4 -12 1
-19z m-3844 -305 c-5 -2 -6 -28 -5 -58 3 -38 0 -55 -8 -55 -9 0 -11 39 -6 158
10 254 20 308 24 117 1 -88 -1 -161 -5 -162z m2360 144 c-20 -40 -51 -106 -69
-147 l-33 -75 -1 51 c0 48 36 157 101 299 l22 50 9 -53 c7 -49 5 -58 -29 -125z
m1517 122 c0 -18 -26 -79 -34 -79 -1 0 2 25 7 55 10 51 27 67 27 24z m-6805
-56 c-4 -30 -9 -52 -12 -49 -3 2 -2 33 2 68 5 35 10 57 13 50 2 -7 1 -38 -3
-69z m2685 23 c0 -39 -6 -30 -13 19 -4 27 -3 35 3 25 5 -8 10 -28 10 -44z
m-2924 -83 c-9 -29 -19 -53 -22 -53 -2 0 -4 42 -4 93 l1 92 21 -39 c20 -39 20
-42 4 -93z m1894 -390 c-19 -128 -57 -115 -66 22 -2 33 -9 132 -14 220 -6 88
-13 187 -15 220 -4 43 11 -4 51 -160 l56 -220 -12 -82z m2989 437 c1 -33 -2
-41 -9 -30 -5 8 -9 38 -9 65 1 64 17 32 18 -35z m1791 57 c0 -13 -7 -32 -15
-43 -14 -19 -14 -19 -15 1 0 30 11 65 21 65 5 0 9 -10 9 -23z m-6827 -127 c14
-134 10 -424 -6 -390 -16 35 -28 545 -12 528 2 -2 10 -64 18 -138z m3372 50
c-1 -34 -6 -65 -13 -72 -10 -10 -12 4 -10 69 3 96 23 98 23 3z m911 -18 c-13
-13 -17 9 -10 50 l9 43 3 -44 c2 -23 1 -46 -2 -49z m-3847 16 c6 -26 11 -68
11 -95 -1 -46 -1 -47 -14 -23 -15 28 -31 189 -17 175 4 -6 13 -31 20 -57z
m485 35 c-7 -30 -24 -55 -24 -35 0 12 21 62 27 62 2 0 0 -12 -3 -27z m144 -50
c-22 -28 -38 20 -21 63 5 14 9 11 18 -17 8 -22 9 -38 3 -46z m3089 15 c23 -67
34 -167 23 -208 -4 -19 -13 4 -33 90 -40 171 -34 245 10 118z m978 -6 c7 -44
-11 -178 -25 -187 -5 -3 -7 3 -5 12 2 10 4 70 5 133 1 114 10 130 25 42z
m-3337 -9 c11 -34 5 -103 -9 -103 -14 0 -29 64 -26 116 2 56 13 52 35 -13z
m656 -26 l-8 -42 -7 40 c-4 22 -8 54 -8 70 l0 30 15 -28 c11 -21 13 -40 8 -70z
m265 -167 c1 -97 3 -186 6 -198 2 -12 2 -22 0 -22 -8 0 -31 64 -50 137 -11 42
-22 68 -26 61 -4 -7 -5 8 -2 33 3 31 13 51 32 67 22 21 23 22 4 13 -30 -15
-30 0 -1 99 l23 75 6 -45 c4 -25 7 -124 8 -220z m2301 159 c11 -71 11 -78 -11
-129 -23 -53 -23 -53 -31 -24 -11 42 -13 104 -4 144 16 72 30 115 32 100 1 -8
8 -49 14 -91z m2235 -4 c31 -85 35 -108 30 -155 -12 -109 -14 -112 -41 -45
-14 33 -23 71 -21 85 2 14 2 19 -1 11 -3 -11 -8 -8 -19 10 -8 13 -12 16 -9 6
16 -50 16 -66 2 -98 l-14 -34 -2 40 c0 22 -3 82 -6 132 -5 84 -4 96 16 123 12
17 24 30 25 28 2 -2 20 -48 40 -103z m-4213 -80 l-9 -40 -13 42 c-11 36 -10
50 6 110 l19 68 3 -70 c1 -38 -1 -88 -6 -110z m3044 -85 c8 -119 0 -135 -10
-20 -4 41 -14 110 -22 153 -9 44 -12 87 -8 100 10 29 30 -86 40 -233z m-4771
208 c4 -18 23 -89 42 -158 34 -124 34 -126 22 -212 -6 -49 -15 -88 -19 -88 -4
0 -31 50 -60 112 -45 95 -52 115 -43 137 6 14 14 35 18 46 6 19 6 19 -8 2 -13
-16 -15 -15 -21 14 -12 61 -6 99 20 139 15 22 30 40 35 40 4 0 11 -15 14 -32z
m1866 -121 c6 -44 12 -84 15 -91 3 -7 -6 -17 -20 -24 -21 -9 -25 -8 -29 11
-18 75 -18 120 -1 189 18 69 19 71 21 33 2 -22 8 -75 14 -118z m1208 9 c1 -55
-2 -97 -5 -93 -11 11 -23 160 -16 202 5 36 6 38 13 15 4 -14 7 -70 8 -124z
m-3264 37 c-6 -14 -11 -9 -21 26 -11 35 -11 47 -1 59 10 13 13 9 21 -26 5 -22
5 -49 1 -59z m332 5 c-2 -18 -4 -6 -4 27 0 33 2 48 4 33 2 -15 2 -42 0 -60z
m485 -150 c2 -70 0 -124 -3 -120 -4 4 -18 41 -32 82 -27 80 -26 116 4 225 l13
50 7 -55 c4 -30 9 -112 11 -182z m3781 -41 c-3 -142 -10 -254 -14 -250 -4 4
-33 57 -64 117 l-57 108 22 57 c38 101 105 239 112 233 4 -4 4 -123 1 -265z
m-5489 179 c45 -82 47 -92 26 -141 -5 -11 -18 -54 -29 -95 -11 -41 -25 -88
-31 -105 -17 -45 -26 -19 -41 118 -10 94 -10 132 0 190 15 86 22 117 26 117 2
0 24 -38 49 -84z m1626 27 c-1 -43 -3 -54 -11 -41 -8 15 -2 98 7 98 2 0 4 -26
4 -57z m-1450 26 c0 -11 -4 -18 -10 -14 -5 3 -7 12 -3 20 7 21 13 19 13 -6z
m4997 -11 c-3 -7 -5 -2 -5 12 0 14 2 19 5 13 2 -7 2 -19 0 -25z m-4318 0 c5
-13 11 -39 15 -58 l7 -35 -25 45 c-30 54 -34 46 -6 -10 11 -22 20 -54 20 -72
0 -25 3 -29 10 -18 7 10 8 -6 3 -50 -8 -82 -21 -122 -22 -67 -1 21 -5 36 -10
33 -8 -6 -25 65 -36 156 -5 37 -2 53 12 73 22 30 22 30 32 3z m2296 -30 c-23
-91 -24 -94 -20 -47 4 44 20 99 29 99 2 0 -2 -24 -9 -52z m1460 8 c7 -43 2
-66 -13 -66 -4 0 -8 25 -10 55 -4 66 14 74 23 11z m1024 -93 c0 -100 -4 -146
-15 -168 -13 -27 -14 -20 -8 85 3 63 5 124 5 135 -1 25 9 85 14 85 2 0 4 -62
4 -137z m-6974 86 c14 -25 14 -42 4 -114 -7 -47 -16 -85 -21 -85 -4 0 -8 -15
-8 -34 0 -19 -5 -38 -12 -42 -8 -5 -9 9 -5 56 4 35 7 108 7 162 0 103 6 113
35 57z m7985 19 c0 -26 -61 -204 -79 -234 -12 -18 -12 -18 -7 1 3 11 10 56 17
100 12 80 41 155 59 155 6 0 10 -10 10 -22z m-5386 -188 c-5 -35 -8 -41 -14
-25 -7 20 -7 33 7 160 l8 70 3 -80 c2 -44 0 -100 -4 -125z m2506 188 c0 -7 -5
-20 -10 -28 -8 -12 -10 -9 -10 13 0 15 5 27 10 27 6 0 10 -6 10 -12z m-3898
-125 c2 -47 0 -69 -6 -63 -5 5 -11 51 -13 102 -3 111 13 76 19 -39z m-1089
-83 l-7 -35 -6 50 c-6 44 -7 40 -8 -33 -3 -117 -22 -96 -22 23 0 52 4 96 9 99
4 3 14 27 22 53 l14 48 3 -85 c2 -47 0 -101 -5 -120z m1396 82 l0 -107 -16 58
c-10 40 -13 77 -8 113 11 88 25 51 24 -64z m1841 60 c0 -23 -11 -48 -35 -79
-19 -25 -35 -42 -35 -38 0 7 35 131 46 165 8 23 24 -8 24 -48z m1885 -57 c9
-55 19 -111 22 -124 4 -15 2 -22 -4 -18 -6 4 -13 30 -17 58 -4 29 -14 65 -22
80 -15 30 -20 130 -5 114 5 -6 16 -55 26 -110z m125 48 c0 -48 -3 -64 -10 -53
-17 26 -12 120 7 120 2 0 3 -30 3 -67z m-4228 32 c3 -14 1 -25 -3 -25 -5 0 -9
11 -9 25 0 14 2 25 4 25 2 0 6 -11 8 -25z m788 23 c-1 -2 -7 -28 -15 -58 -12
-49 -13 -51 -14 -20 -1 43 8 80 20 80 5 0 9 -1 9 -2z m409 -50 l-2 -53 -7 45
c-7 42 -5 60 6 60 2 0 3 -24 3 -52z m3287 -27 c-10 -116 -27 -159 -21 -51 6
87 13 130 22 130 3 0 2 -36 -1 -79z m934 55 c0 -8 -7 -19 -15 -26 -13 -10 -15
-9 -15 12 0 14 3 28 6 31 9 9 24 -2 24 -17z m1707 -23 c1 -27 5 -81 8 -120 8
-78 1 -123 -16 -123 -8 0 -10 27 -7 84 3 52 1 83 -5 79 -9 -6 0 103 10 120 7
12 8 9 10 -40z m-5399 -73 c0 -16 -3 -11 -9 15 -4 22 -8 51 -7 65 0 16 3 11 9
-15 4 -22 8 -51 7 -65z m776 -5 c-3 -19 -15 -42 -26 -52 -21 -18 -21 -18 -13
37 4 30 7 71 6 90 l-1 35 20 -38 c15 -27 19 -48 14 -72z m363 83 c-3 -8 -6 -5
-6 6 -1 11 2 17 5 13 3 -3 4 -12 1 -19z m1517 -9 c1 -13 6 -31 10 -40 4 -9 3
-32 -2 -50 l-10 -34 -1 31 c-1 17 -4 53 -7 80 -4 27 -4 46 0 43 4 -4 8 -17 10
-30z m-1307 -1 c-3 -8 -6 -5 -6 6 -1 11 2 17 5 13 3 -3 4 -12 1 -19z m2907
-178 c3 -96 2 -191 -2 -210 -9 -35 -9 -34 -36 50 -15 47 -30 116 -33 153 -5
59 -2 76 22 138 18 43 31 65 36 57 3 -7 9 -92 13 -188z m1080 163 c-3 -21 -15
-69 -26 -108 l-20 -70 -19 49 c-10 27 -15 54 -12 60 14 24 75 106 79 106 3 0
2 -17 -2 -37z m-5497 5 c-3 -8 -6 -5 -6 6 -1 11 2 17 5 13 3 -3 4 -12 1 -19z
m1845 -13 c3 -14 -1 -30 -8 -36 -11 -9 -14 -4 -14 30 0 45 14 48 22 6z m2325
-42 c-2 -16 -4 -3 -4 27 0 30 2 43 4 28 2 -16 2 -40 0 -55z m-360 35 c-3 -7
-5 -2 -5 12 0 14 2 19 5 13 2 -7 2 -19 0 -25z m1223 -138 c-15 -28 -27 -25
-35 10 -6 28 2 68 28 135 11 28 12 24 15 -47 2 -43 -2 -87 -8 -98z m-4981 68
c-6 -15 -16 -31 -22 -35 -9 -6 -7 22 10 102 l6 30 9 -34 c6 -23 5 -43 -3 -63z
m191 71 c0 -11 -4 -18 -10 -14 -5 3 -7 12 -3 20 7 21 13 19 13 -6z m1720 -10
c0 -11 -4 -17 -10 -14 -5 3 -10 15 -10 26 0 11 5 17 10 14 6 -3 10 -15 10 -26z
m1090 13 c0 -10 4 -22 9 -27 4 -6 13 -25 20 -44 11 -33 9 -37 -21 -68 l-33
-34 -6 30 c-4 17 -2 52 3 78 6 27 10 56 10 66 -1 9 3 17 9 17 5 0 9 -8 9 -18z
m799 -64 l-13 -73 -8 45 c-7 35 -5 52 8 78 10 17 19 30 22 28 2 -3 -2 -38 -9
-78z m-580 -32 c6 -54 9 -101 7 -103 -11 -11 -37 61 -43 117 -4 42 -2 64 7 75
7 9 14 14 15 13 2 -2 8 -48 14 -102z m88 72 c-3 -7 -5 -2 -5 12 0 14 2 19 5
13 2 -7 2 -19 0 -25z m-6398 -87 c33 -76 41 -106 41 -155 0 -36 -4 -56 -9 -50
-5 5 -22 59 -39 119 -62 226 -60 242 7 86z m1941 19 c-1 -11 -4 -10 -15 4 -8
11 -15 36 -15 55 l1 36 14 -40 c8 -22 15 -47 15 -55z m-664 -88 c-15 -15 -16
-9 -15 78 l2 95 14 -78 c14 -72 14 -80 -1 -95z m604 113 c0 -16 -4 -36 -9 -43
-5 -9 -8 8 -7 42 0 30 4 50 8 43 4 -7 8 -25 8 -42z m2627 8 c-3 -10 -5 -2 -5
17 0 19 2 27 5 18 2 -10 2 -26 0 -35z m838 11 c17 -41 20 -74 6 -74 -5 0 -11
13 -14 29 -3 16 -9 40 -13 55 -9 38 3 32 21 -10z m-785 -68 c-7 -7 -10 6 -9
40 l1 49 9 -39 c6 -26 6 -43 -1 -50z m326 37 c-11 -74 -49 -263 -53 -260 -9
10 20 265 33 285 22 33 27 27 20 -25z m1699 -169 c-9 -14 -19 -23 -22 -20 -3
3 1 58 8 123 l13 118 9 -97 c8 -85 7 -101 -8 -124z m-4511 124 c9 -37 16 -80
15 -95 0 -41 -49 103 -49 147 0 49 14 27 34 -52z m134 -10 c1 -83 0 -90 -12
-69 -9 17 -11 34 -5 55 4 17 8 38 7 46 -2 23 2 60 6 60 1 0 4 -42 4 -92z
m2729 45 c-3 -10 -5 -2 -5 17 0 19 2 27 5 18 2 -10 2 -26 0 -35z m1470 0 c-3
-10 -5 -2 -5 17 0 19 2 27 5 18 2 -10 2 -26 0 -35z m46 -25 c-6 -68 -23 -86
-23 -24 0 31 19 101 25 94 2 -2 1 -33 -2 -70z m-308 52 c3 -5 1 -10 -4 -10 -6
0 -11 5 -11 10 0 6 2 10 4 10 3 0 8 -4 11 -10z m105 -15 c0 -18 -4 -23 -15
-19 -16 6 -20 26 -8 37 13 14 23 6 23 -18z m-4466 -94 c-13 -32 -23 37 -11 77
l12 37 3 -49 c2 -27 0 -56 -4 -65z m1905 -62 c-1 -93 -2 -169 -4 -167 -1 2
-15 45 -29 96 l-27 93 22 62 c12 34 23 68 25 75 11 38 14 -6 13 -159z m3556
39 c3 -58 2 -85 -3 -73 -5 11 -12 63 -14 115 -3 56 -2 86 3 73 4 -13 11 -64
14 -115z m1440 56 c22 -59 26 -85 21 -122 -3 -26 -11 -87 -16 -137 -6 -49 -16
-115 -24 -145 l-14 -55 -1 106 c-1 58 -6 155 -12 215 -8 82 -8 122 1 162 6 28
13 52 14 52 2 0 16 -34 31 -76z m-8288 19 c-3 -10 -5 -2 -5 17 0 19 2 27 5 18
2 -10 2 -26 0 -35z m443 -122 c0 -20 -4 -31 -8 -25 -9 10 -42 160 -41 184 1
30 49 -125 49 -159z m1609 72 c0 -66 -3 -91 -9 -77 -8 20 -2 174 6 174 2 0 4
-44 3 -97z m5895 22 c-3 -67 -8 -81 -40 -128 -31 -45 -35 -48 -29 -22 10 45
66 225 70 225 2 0 2 -34 -1 -75z m-5688 29 c-11 -42 -26 -77 -32 -71 -10 9 19
107 29 100 5 -3 6 -16 3 -29z m-2545 -52 c19 -45 25 -117 11 -139 -5 -8 -19
10 -40 52 -23 48 -32 79 -32 117 l0 51 21 -19 c12 -10 30 -38 40 -62z m3978
30 c1 -7 -3 -10 -9 -7 -5 3 -10 18 -9 33 0 24 1 25 9 7 5 -11 9 -26 9 -33z
m-2934 -227 c-3 -11 -16 -33 -30 -50 l-26 -30 7 165 c3 91 9 169 12 175 8 13
43 -234 37 -260z m1361 167 c-11 -11 -18 7 -22 55 l-4 48 16 -48 c9 -27 13
-51 10 -55z m2130 -74 c-1 -106 -5 -180 -12 -191 -8 -15 -12 15 -18 127 -4 81
-11 159 -17 173 -9 23 -7 30 13 45 13 10 26 18 29 18 3 0 5 -78 5 -172z
m-4410 54 c4 -51 4 -92 1 -92 -3 0 -15 26 -27 57 -19 51 -20 63 -9 101 6 24
16 39 20 35 5 -5 12 -50 15 -101z m1873 70 c0 -24 -1 -25 -9 -7 -12 28 -12 47
0 40 6 -3 10 -18 9 -33z m2185 -18 c4 -31 5 -59 2 -61 -6 -7 -36 100 -30 109
13 20 22 4 28 -48z m1899 -19 c3 -38 4 -61 1 -50 -3 11 -9 39 -15 62 -6 23 -8
47 -4 53 10 17 12 11 18 -65z m-5828 -20 c-4 -42 -9 -74 -12 -71 -3 3 -2 39 2
81 4 42 9 74 12 71 3 -3 2 -39 -2 -81z m2770 -97 c16 -117 19 -188 7 -188 -4
0 -8 8 -9 18 -1 9 -17 71 -35 138 l-32 121 19 49 19 49 8 -40 c4 -22 14 -88
23 -147z m506 151 c-5 -13 -10 -19 -10 -12 -1 15 10 45 15 40 3 -2 0 -15 -5
-28z m3345 -26 c-17 -31 -19 -23 -10 27 6 26 9 29 16 16 6 -10 4 -25 -6 -43z
m-3632 -26 c23 -62 46 -179 33 -167 -6 5 -67 223 -67 237 0 14 10 -5 34 -70z
m1942 -14 c-3 -49 -12 -110 -20 -138 l-14 -50 -1 78 c-1 43 4 99 10 125 15 65
17 72 25 72 4 0 4 -39 0 -87z m-4833 -12 c-5 -68 -8 -80 -15 -60 -14 35 1 163
17 147 2 -2 1 -41 -2 -87z m2217 48 c0 -18 -5 -29 -11 -27 -6 2 -10 7 -10 11
1 4 1 19 1 33 0 14 4 23 10 19 6 -3 10 -20 10 -36z m2240 -115 c-7 -73 -11
-166 -9 -206 1 -40 1 -100 -1 -133 -3 -60 -3 -60 -11 -20 -6 31 -7 22 -5 -35
3 -63 2 -69 -6 -40 -10 35 -5 139 8 174 5 14 4 17 -4 12 -7 -4 -13 -17 -13
-29 -1 -12 -5 -2 -10 23 -7 43 8 191 32 298 5 23 9 55 9 70 0 31 12 51 19 31
2 -7 -2 -72 -9 -145z m1336 144 c5 -7 3 -8 -6 -3 -10 6 -11 3 -5 -16 12 -38
18 -142 7 -135 -10 6 -25 143 -17 157 8 12 12 11 21 -3z m2610 -91 c14 -91 14
-97 -4 -133 l-19 -38 -7 57 c-7 53 2 223 11 214 2 -3 11 -47 19 -100z m-8062
-3 c11 -60 13 -100 7 -115 -8 -23 -9 -22 -14 11 -9 52 -19 205 -13 199 2 -2
12 -45 20 -95z m2473 44 c-2 -13 -4 -5 -4 17 -1 22 1 32 4 23 2 -10 2 -28 0
-40z m1306 -35 c3 -35 1 -66 -4 -69 -5 -3 -9 7 -9 23 0 15 -3 53 -6 83 -3 36
-2 50 4 40 5 -8 12 -43 15 -77z m2197 40 c-11 -17 -11 -17 -6 0 3 10 7 26 7
35 1 15 2 15 6 0 2 -10 -1 -25 -7 -35z m930 -67 c55 -85 61 -97 55 -130 -4
-20 -11 -39 -16 -42 -5 -3 -10 -58 -10 -122 -1 -64 -4 -130 -8 -147 -7 -29 -7
-28 -18 20 -7 28 -15 77 -18 110 -3 33 -22 136 -41 229 -19 93 -34 175 -34
184 0 25 23 -2 90 -102z m451 54 l-9 -45 -1 37 c-1 20 2 44 6 54 11 29 14 2 4
-46z m-6613 -105 c3 -92 0 -135 -7 -135 -6 0 -11 3 -12 8 -6 80 -2 279 6 271
6 -5 11 -70 13 -144z m352 129 c0 -8 -4 -14 -10 -14 -5 0 -10 9 -10 21 0 11 5
17 10 14 6 -3 10 -13 10 -21z m4239 -149 c1 -96 -1 -175 -3 -175 -11 0 -25 40
-40 114 -14 64 -14 81 -4 94 8 10 9 13 1 9 -16 -10 -22 22 -9 53 11 26 45 80
51 80 2 0 4 -79 4 -175z m-1712 118 c-3 -10 -5 -2 -5 17 0 19 2 27 5 18 2 -10
2 -26 0 -35z m-3065 -237 c46 -177 49 -195 43 -275 -3 -47 -9 -102 -14 -121
l-7 -35 -8 50 c-8 52 -75 269 -75 246 -1 -7 10 -59 23 -115 45 -187 62 -346
36 -346 -4 0 -15 62 -23 138 -16 136 -16 136 -12 37 3 -55 8 -131 12 -169 5
-57 4 -68 -8 -64 -22 7 -37 128 -49 398 -6 135 -13 295 -17 356 -5 95 -3 115
13 145 l18 34 9 -45 c5 -25 32 -130 59 -234z m457 208 c1 -28 -3 -43 -9 -39
-5 3 -10 30 -10 58 0 63 16 47 19 -19z m2257 31 c8 -20 14 -67 14 -117 0 -77
-2 -86 -32 -130 -18 -27 -37 -48 -42 -48 -11 0 -1 112 19 205 8 38 15 82 15
97 0 37 8 35 26 -7z m-2297 -20 c0 -5 -4 -3 -9 5 -5 8 -9 22 -9 30 0 16 17
-16 18 -35z m5261 -3 c7 -18 37 -77 66 -130 32 -58 54 -109 54 -127 0 -17 -13
-69 -28 -115 l-28 -84 -17 25 c-15 21 -17 41 -11 159 4 85 2 144 -4 160 -9 20
-11 10 -11 -55 -1 -44 -4 -118 -8 -164 -6 -83 -6 -83 -22 -55 -13 23 -17 70
-19 234 -3 203 0 222 28 152z m1386 -14 c16 -50 16 -54 -2 -107 l-19 -56 -5
85 c-5 78 -2 130 5 130 2 0 11 -23 21 -52z m-6430 -63 c-2 -11 -7 -31 -11 -45
l-6 -25 14 24 c12 21 15 21 21 6 13 -35 19 -192 7 -199 -7 -5 -11 4 -11 29 0
19 -9 62 -20 94 -24 73 -35 160 -25 198 8 28 8 27 22 -17 8 -25 12 -54 9 -65z
m531 83 c-3 -8 -6 -5 -6 6 -1 11 2 17 5 13 3 -3 4 -12 1 -19z m186 1 c4 -16 3
-18 -9 -8 -16 13 -19 29 -5 29 5 0 11 -9 14 -21z m2894 -16 c-3 -10 -5 -4 -5
12 0 17 2 24 5 18 2 -7 2 -21 0 -30z m2933 7 c0 -16 -4 -30 -10 -30 -11 0 -14
43 -3 53 11 12 13 8 13 -23z m-5861 -59 l-1 -66 -19 60 c-20 65 -19 88 6 79
11 -5 15 -21 14 -73z m-2856 -61 c28 -85 38 -139 53 -280 20 -203 21 -226 10
-340 -12 -135 -22 -123 -30 35 -8 176 -44 481 -82 690 -9 52 12 8 49 -105z
m1167 1 c4 -93 1 -121 -10 -121 -5 0 -9 52 -8 128 1 130 14 126 18 -7z m1203
29 c-8 -19 -17 -41 -20 -47 -18 -44 -37 27 -22 83 18 70 19 71 39 34 17 -32
17 -38 3 -70z m6428 25 c5 -11 9 -52 7 -90 -3 -65 -4 -67 -11 -30 -4 22 -13
63 -19 91 -6 31 -7 64 -2 80 l8 29 3 -30 c2 -16 8 -39 14 -50z m-3164 13 c-2
-13 -4 -5 -4 17 -1 22 1 32 4 23 2 -10 2 -28 0 -40z m1527 -140 c-4 -106 -8
-194 -9 -196 -1 -1 -12 46 -23 105 -19 97 -20 115 -9 173 12 60 31 110 42 110
3 0 2 -87 -1 -192z m1350 54 l-17 -57 -12 30 c-26 63 -26 70 7 120 l33 50 3
-43 c2 -23 -4 -68 -14 -100z m-8248 66 c20 -48 21 -56 8 -98 -8 -25 -14 -49
-15 -55 0 -5 -7 6 -14 25 -14 36 -21 199 -8 186 4 -4 17 -30 29 -58z m221 40
c-3 -8 -6 -5 -6 6 -1 11 2 17 5 13 3 -3 4 -12 1 -19z m6923 -40 c0 -20 -4 -40
-10 -43 -6 -4 -10 16 -10 52 0 41 3 54 10 43 5 -8 10 -32 10 -52z m-5470 23
c0 -17 -4 -33 -10 -36 -6 -4 -10 8 -10 29 0 20 5 36 10 36 6 0 10 -13 10 -29z
m1065 -28 c-9 -50 -17 -34 -9 18 4 24 9 38 12 31 2 -7 1 -29 -3 -49z m2126 26
c-5 -13 -10 -19 -10 -12 -1 15 10 45 15 40 3 -2 0 -15 -5 -28z m1648 -56 l-1
-88 -16 62 c-12 49 -13 68 -4 88 6 14 14 25 17 25 3 0 4 -39 4 -87z m-6789
-258 c31 -260 45 -573 34 -747 -13 -190 -30 -214 -25 -35 4 164 -15 595 -35
782 -8 77 -17 185 -19 240 l-4 100 14 -85 c8 -47 23 -161 35 -255z m611 225
c-9 -22 -10 -20 -10 20 -1 25 3 56 7 70 6 21 7 17 10 -20 2 -25 -1 -57 -7 -70z
m353 -140 c-7 -54 -14 -67 -25 -49 -13 21 -11 162 4 238 l12 66 7 -105 c4 -58
5 -125 2 -150z m455 185 c-4 -33 -8 -86 -8 -117 -1 -32 -5 -58 -10 -58 -6 0
-8 15 -6 33 2 17 7 67 10 110 4 70 12 105 20 95 1 -2 -1 -30 -6 -63z m666 13
c-8 -60 -25 -88 -25 -41 0 31 18 93 27 93 3 0 2 -24 -2 -52z m768 -38 c12 -48
14 -93 10 -175 -4 -68 -9 -102 -14 -90 -4 11 -5 40 -2 65 5 42 -10 200 -24
260 -4 17 -2 22 4 15 6 -5 17 -39 26 -75z m97 -21 c18 -34 21 -52 15 -94 -3
-28 -12 -64 -20 -78 -8 -15 -12 -35 -9 -45 5 -14 4 -14 -4 -2 -22 34 -42 143
-42 231 l0 94 20 -32 c10 -17 29 -51 40 -74z m2347 -113 c-2 -4 -13 25 -26 67
-18 56 -22 84 -16 113 8 36 9 32 26 -66 10 -58 17 -109 16 -114z m1183 162 c0
-15 -4 -30 -10 -33 -6 -4 -10 12 -10 42 0 35 3 44 10 33 5 -8 10 -27 10 -42z
m1118 -17 c-1 -9 4 -26 11 -39 24 -44 25 -150 2 -231 -25 -90 -32 -99 -31 -41
0 25 -2 110 -5 189 -3 80 -2 154 1 165 7 20 7 20 16 -3 5 -14 8 -32 6 -40z
m-7061 -84 c-2 -23 -3 -1 -3 48 0 50 1 68 3 42 2 -26 2 -67 0 -90z m5854 -75
l-20 -47 0 130 1 130 20 -83 20 -84 -21 -46z m571 111 c-5 -26 -12 -55 -14
-63 -3 -8 -3 -12 -1 -7 20 34 29 -40 12 -91 -9 -29 -13 -32 -21 -19 -12 23 -1
219 14 254 l13 28 3 -27 c2 -15 -1 -48 -6 -75z m1207 2 c-5 -13 -8 0 -7 40 0
56 1 58 8 20 4 -22 4 -49 -1 -60z m-335 -17 l5 -53 -14 40 c-7 22 -13 58 -13
80 0 36 1 37 8 13 4 -15 10 -51 14 -80z m1489 -101 c3 -181 2 -199 -16 -224
-19 -28 -19 -27 -13 157 5 171 14 276 22 267 2 -2 5 -92 7 -200z m-5443 -42
c11 -66 19 -131 19 -145 -1 -14 -6 0 -11 30 -5 30 -17 98 -28 150 -11 52 -22
120 -24 150 l-6 55 15 -60 c8 -33 24 -114 35 -180z m-1891 170 c-1 -29 -1 -29
-9 -5 -4 14 -8 34 -9 45 -1 16 1 17 9 5 5 -8 9 -28 9 -45z m406 -125 c-6 -37
-9 -41 -17 -26 -6 10 -8 37 -5 59 3 23 2 35 -2 28 -19 -31 -17 17 3 69 l21 55
3 -70 c2 -38 0 -90 -3 -115z m1106 93 c-8 -14 -10 -6 -10 37 1 55 1 55 11 18
7 -25 6 -43 -1 -55z m-2851 -42 c0 -96 -7 -106 -29 -42 -8 25 -8 51 0 99 16
88 29 62 29 -57z m2400 89 c0 -16 -4 -30 -8 -30 -5 0 -7 14 -4 30 2 17 6 30 8
30 2 0 4 -13 4 -30z m-221 -74 c1 -70 -5 -53 -12 29 -3 41 -2 60 3 45 4 -14 8
-47 9 -74z m832 63 c-9 -22 -10 -22 -10 -3 -1 11 2 24 6 27 12 12 14 0 4 -24z
m2893 -87 c13 -56 12 -61 -8 -93 l-21 -34 -6 65 c-4 36 -7 90 -7 120 -1 54 -1
54 13 28 8 -15 21 -53 29 -86z m217 -52 c-3 -8 -11 17 -18 55 -17 101 -14 122
6 35 9 -41 15 -82 12 -90z m-3487 80 l7 -35 -16 34 c-8 18 -15 43 -14 55 0 20
1 20 8 1 5 -11 11 -36 15 -55z m1867 -22 c-3 -65 -6 -82 -10 -58 -8 41 -2 150
7 150 4 0 5 -42 3 -92z m-4131 -50 c0 -164 -20 -165 -23 -2 -2 96 4 134 19
134 2 0 4 -59 4 -132z m197 70 c-2 -13 -4 -3 -4 22 0 25 2 35 4 23 2 -13 2
-33 0 -45z m689 -3 c-4 -25 -11 -45 -16 -45 -8 0 -4 56 6 89 9 30 16 0 10 -44z
m45 -38 c-13 -13 -15 50 -3 80 5 13 8 5 10 -26 2 -24 -2 -49 -7 -54z m6159 86
c0 -5 -5 -15 -10 -23 -8 -12 -10 -11 -10 8 0 12 5 22 10 22 6 0 10 -3 10 -7z
m357 -143 l-15 -35 -1 70 c0 39 3 81 6 95 6 20 9 14 16 -35 7 -47 6 -68 -6
-95z m-7103 79 c8 -80 8 -134 -1 -142 -4 -4 -21 20 -39 54 l-33 60 27 45 c15
24 30 44 33 44 3 0 9 -28 13 -61z m1388 31 c5 -34 -7 -41 -17 -10 -5 17 0 40
9 40 2 0 6 -13 8 -30z m2677 -37 l-1 -68 -14 33 c-9 21 -12 46 -8 68 11 57 24
38 23 -33z m2020 -41 c1 -20 -3 -31 -9 -27 -5 3 -9 36 -9 73 1 62 2 64 10 27
4 -22 8 -55 8 -73z m273 62 c-6 -35 -12 -29 -12 14 0 23 3 32 9 24 4 -7 6 -24
3 -38z m-7384 -96 c-5 -77 -11 -98 -25 -84 -11 10 -17 160 -8 194 l7 27 15
-29 c11 -22 14 -50 11 -108z m3979 95 c-3 -10 -5 -4 -5 12 0 17 2 24 5 18 2
-7 2 -21 0 -30z m3833 22 c0 -8 -4 -15 -10 -15 -5 0 -7 7 -4 15 4 8 8 15 10
15 2 0 4 -7 4 -15z m510 -30 c-16 -47 -23 -40 -9 9 6 21 13 36 16 33 3 -3 0
-22 -7 -42z m399 -25 c-8 -88 -19 -103 -19 -26 0 47 12 96 23 96 2 0 0 -32 -4
-70z m-4421 3 l-1 -58 -6 45 c-6 42 -4 70 5 70 2 0 3 -26 2 -57z m1833 0 c-9
-16 -10 -16 -11 4 0 12 3 30 7 40 7 16 8 16 11 -4 2 -12 -1 -30 -7 -40z m2162
37 c-3 -12 -8 -19 -11 -16 -5 6 5 36 12 36 2 0 2 -9 -1 -20z m-5113 -48 c-7
-13 -9 -8 -9 23 0 35 1 37 10 17 6 -15 5 -30 -1 -40z m5390 -207 c-9 -140 -27
-219 -31 -135 -1 40 -2 42 -8 15 -6 -25 -8 -19 -14 35 -5 49 -1 87 14 155 12
50 24 113 27 140 l6 50 7 -65 c4 -36 3 -123 -1 -195z m-8421 145 c0 -39 -2
-51 -9 -40 -5 8 -9 44 -9 80 1 80 17 45 18 -40z m5308 68 c-3 -7 -5 -2 -5 12
0 14 2 19 5 13 2 -7 2 -19 0 -25z m-3059 -35 c1 -26 -2 -64 -7 -83 -8 -35 -8
-34 -15 21 -8 58 0 123 13 114 4 -2 8 -26 9 -52z m257 36 c-4 -5 -1 -9 4 -9
15 0 14 -151 -1 -217 -7 -29 -15 -53 -19 -53 -3 0 -13 25 -21 55 -14 51 -14
60 4 123 11 37 19 80 18 95 0 17 4 26 10 22 6 -3 8 -11 5 -16z m3812 -1 c-3
-8 -6 -5 -6 6 -1 11 2 17 5 13 3 -3 4 -12 1 -19z m1733 -18 c0 -22 -4 -40 -10
-40 -11 0 -14 63 -3 73 11 12 13 8 13 -33z m-4911 -20 c0 -23 -1 -23 -9 -5 -5
11 -9 29 -9 40 -1 17 1 17 9 5 5 -8 9 -26 9 -40z m670 -266 c1 -104 -6 -164
-19 -164 -19 0 -52 121 -60 220 -5 58 -11 112 -15 121 -3 9 11 41 37 80 l43
64 6 -110 c4 -60 7 -156 8 -211z m3450 268 c1 -7 -3 -10 -9 -7 -5 3 -10 18 -9
33 0 24 1 25 9 7 5 -11 9 -26 9 -33z m665 -63 l-8 -104 -11 55 c-8 44 -8 66 4
108 8 28 16 50 18 48 2 -2 1 -50 -3 -107z m195 37 c-6 -36 -15 -69 -20 -72 -9
-5 -4 35 13 104 16 63 21 44 7 -32z m-6882 42 c-3 -8 -6 -5 -6 6 -1 11 2 17 5
13 3 -3 4 -12 1 -19z m4485 -62 c0 -47 -3 -81 -10 -88 -9 -9 -12 -1 -12 34 0
51 11 140 16 135 2 -2 5 -38 6 -81z m1921 46 c-3 -12 -9 -22 -14 -22 -12 0
-11 7 3 30 15 24 19 21 11 -8z m-2718 -42 c5 -24 4 -32 -3 -25 -6 6 -13 28
-17 50 -8 49 9 28 20 -25z m-1873 23 c0 -16 2 -39 4 -53 2 -14 5 -47 9 -75 l5
-50 -20 45 c-15 31 -18 51 -12 65 4 11 5 37 2 58 -4 20 -3 37 2 37 4 0 9 -12
10 -27z m-640 -18 c3 -14 2 -25 -2 -25 -9 0 0 -52 12 -67 6 -7 6 -27 2 -45
l-7 -33 -8 28 c-4 16 -5 35 -2 43 3 8 0 14 -5 14 -7 0 -11 24 -10 60 1 59 11
73 20 25z m-1705 3 c-3 -8 -6 -5 -6 6 -1 11 2 17 5 13 3 -3 4 -12 1 -19z
m2650 -15 c-3 -10 -5 -4 -5 12 0 17 2 24 5 18 2 -7 2 -21 0 -30z m2587 -9 c3
-26 1 -54 -5 -66 -10 -19 -11 -19 -24 -1 -8 10 -15 24 -15 32 0 20 23 81 31
81 3 0 9 -21 13 -46z m66 37 c0 -6 -4 -13 -10 -16 -5 -3 -10 1 -10 9 0 9 5 16
10 16 6 0 10 -4 10 -9z m1557 -23 c-3 -8 -6 -5 -6 6 -1 11 2 17 5 13 3 -3 4
-12 1 -19z m-6713 -193 c-11 -129 -20 -127 -28 6 -3 68 -9 142 -12 164 -4 36
-2 33 21 -25 24 -59 26 -73 19 -145z m625 158 c-10 -54 -19 -68 -19 -30 0 25
16 77 23 77 3 0 0 -21 -4 -47z m3303 29 c3 -9 1 -26 -3 -37 -6 -15 -8 -11 -8
18 -1 40 4 48 11 19z m-5167 -186 c-9 -26 -11 -20 -22 55 -17 126 -14 143 11
54 17 -62 19 -86 11 -109z m7628 157 c7 -36 -3 -164 -14 -183 -5 -9 -9 31 -9
98 0 105 11 147 23 85z m932 -145 c-3 -95 -9 -195 -13 -223 l-8 -50 -24 97
c-21 87 -23 105 -13 175 10 71 44 173 58 173 3 0 3 -78 0 -172z m-7692 142 c3
-11 1 -20 -4 -20 -5 0 -9 9 -9 20 0 11 2 20 4 20 2 0 6 -9 9 -20z m6444 -50
c-3 -38 -11 -78 -17 -87 -9 -14 -10 -4 -6 46 3 35 6 75 6 87 0 13 5 24 11 24
9 0 10 -21 6 -70z m140 23 c-3 -10 -5 -2 -5 17 0 19 2 27 5 18 2 -10 2 -26 0
-35z m-1797 -78 c7 -55 11 -111 8 -125 -4 -25 -4 -25 -21 7 -17 31 -17 34 0
60 17 28 17 28 -3 10 -26 -22 -34 -14 -24 26 5 18 12 57 16 87 8 65 8 64 24
-65z m1371 30 c14 -44 24 -98 25 -145 2 -41 8 -111 15 -155 8 -50 9 -95 4
-120 -8 -40 -9 -39 -22 40 -7 44 -11 100 -8 125 3 29 2 38 -4 25 -10 -24 -29
69 -37 180 -3 39 -7 85 -9 104 -6 49 9 27 36 -54z m1374 6 c6 -65 -10 -240
-20 -229 -2 2 -8 51 -14 110 -9 80 -9 118 0 152 6 25 15 46 19 46 4 0 11 -35
15 -79z m575 23 c0 -30 -3 -53 -7 -51 -8 5 -5 107 3 107 2 0 4 -25 4 -56z
m-8793 -92 c-3 -35 -10 -69 -16 -75 -6 -6 -11 -18 -11 -27 0 -8 -8 -42 -18
-75 l-19 -60 4 110 c3 61 11 142 19 182 8 40 14 76 15 80 0 4 7 -10 15 -32 11
-27 14 -61 11 -103z m3450 71 c-2 -16 -4 -5 -4 22 0 28 2 40 4 28 2 -13 2 -35
0 -50z m5731 -25 c17 -51 33 -122 36 -158 5 -65 -11 -190 -25 -190 -4 0 -20
49 -35 109 -16 61 -30 108 -32 106 -2 -2 8 -74 23 -161 28 -159 28 -189 -3
-289 -11 -37 -31 126 -41 339 -9 193 -8 212 8 245 10 20 21 48 25 64 3 15 8
27 10 27 3 0 18 -42 34 -92z m-8081 35 c-3 -10 -5 -2 -5 17 0 19 2 27 5 18 2
-10 2 -26 0 -35z m3653 17 c0 -16 -2 -30 -4 -30 -2 0 -6 14 -8 30 -3 17 -1 30
4 30 4 0 8 -13 8 -30z m3354 -107 c-4 -18 -10 -33 -14 -33 -13 0 -21 81 -13
129 l7 46 13 -55 c7 -30 10 -70 7 -87z m-6677 95 c-3 -8 -6 -5 -6 6 -1 11 2
17 5 13 3 -3 4 -12 1 -19z m3567 -12 c-3 -15 -8 -25 -11 -23 -2 3 -1 17 3 31
3 15 8 25 11 23 2 -3 1 -17 -3 -31z m-4645 -53 c-2 -79 -6 -70 -11 25 -2 28 0
52 5 52 4 0 6 -35 6 -77z m2028 30 c-3 -10 -5 -2 -5 17 0 19 2 27 5 18 2 -10
2 -26 0 -35z m3860 15 c-3 -7 -5 -2 -5 12 0 14 2 19 5 13 2 -7 2 -19 0 -25z
m1103 -35 c0 -58 -2 -64 -13 -48 -10 13 -12 30 -6 59 5 23 8 44 9 49 0 4 2 7
5 7 3 0 5 -30 5 -67z m-2243 5 c-2 -13 -4 -5 -4 17 -1 22 1 32 4 23 2 -10 2
-28 0 -40z m1002 21 c6 -18 11 -41 11 -53 -1 -17 -5 -14 -20 14 -21 38 -26 70
-11 70 5 0 14 -14 20 -31z m1687 -31 c-10 -66 -26 -83 -26 -28 0 60 10 94 23
81 5 -5 7 -28 3 -53z m-7729 15 c-3 -10 -5 -4 -5 12 0 17 2 24 5 18 2 -7 2
-21 0 -30z m848 -15 c3 -18 0 -60 -7 -93 l-14 -60 -7 84 c-4 46 -4 88 -1 92
11 18 23 8 29 -23z m796 -9 c-6 -24 -9 -28 -10 -12 -1 24 9 56 16 50 2 -3 0
-20 -6 -38z m2746 4 c-3 -10 -5 -4 -5 12 0 17 2 24 5 18 2 -7 2 -21 0 -30z
m2546 7 c3 -11 2 -20 -3 -20 -8 0 -20 24 -20 41 0 17 17 1 23 -21z m-5365 -62
c-1 -82 -1 -82 -7 -23 -3 33 -4 70 -2 83 7 45 11 20 9 -60z m331 23 c-15 -61
-31 -69 -17 -8 14 61 18 71 24 64 4 -3 0 -29 -7 -56z m4023 16 c1 -20 -1 -39
-5 -43 -4 -4 -7 14 -7 41 0 56 8 57 12 2z m965 21 c-3 -8 -6 -5 -6 6 -1 11 2
17 5 13 3 -3 4 -12 1 -19z m-1020 -25 c-3 -10 -5 -4 -5 12 0 17 2 24 5 18 2
-7 2 -21 0 -30z m1119 -41 c-13 -12 -17 8 -9 44 l8 39 3 -39 c2 -21 1 -41 -2
-44z m-6444 -197 c8 -123 -26 -23 -38 114 -4 38 -3 86 1 107 8 35 10 29 21
-63 7 -56 14 -127 16 -158z m2048 188 c4 -32 6 -60 5 -61 -2 -2 -11 11 -20 28
-11 22 -15 44 -10 67 8 46 15 37 25 -34z m-481 9 c0 -30 -2 -33 -9 -17 -12 28
-12 67 0 60 6 -3 10 -23 9 -43z m906 -6 c8 -61 -2 -139 -16 -130 -12 7 -12
184 0 184 5 0 13 -24 16 -54z m5946 -13 c-12 -23 -20 -31 -21 -20 0 24 32 85
37 70 2 -6 -5 -29 -16 -50z m-7929 -180 c2 -78 0 -139 -3 -135 -4 4 -13 27
-21 52 -11 36 -13 69 -6 165 16 213 25 187 30 -82z m885 81 c-6 -41 -15 -74
-19 -74 -12 0 -9 140 4 185 l12 40 6 -39 c4 -21 2 -72 -3 -112z m1602 91 l0
-20 -9 20 c-5 11 -9 29 -9 40 l0 20 9 -20 c5 -11 9 -29 9 -40z m-3533 -1 c4
-20 4 -61 0 -92 -3 -32 -8 -77 -10 -102 -2 -25 -8 -79 -12 -120 -7 -65 -9 -70
-15 -40 -5 28 -7 22 -8 -30 -1 -36 -5 -71 -10 -78 -14 -22 -22 127 -11 193 6
33 13 69 15 80 2 11 9 66 16 123 7 56 16 102 20 102 5 0 11 -16 15 -36z m-619
-6 c-3 -7 -5 -2 -5 12 0 14 2 19 5 13 2 -7 2 -19 0 -25z m8079 -133 l6 -60
-21 25 c-18 21 -20 38 -20 115 l1 90 14 -55 c8 -30 17 -82 20 -115z m-1599
123 c-3 -7 -5 -2 -5 12 0 14 2 19 5 13 2 -7 2 -19 0 -25z m2240 10 c-3 -8 -6
-5 -6 6 -1 11 2 17 5 13 3 -3 4 -12 1 -19z m-8617 -281 c20 -82 34 -145 30
-140 -3 4 -21 42 -38 83 -24 59 -33 100 -41 191 -13 138 -12 194 1 89 6 -41
27 -142 48 -223z m6811 242 c-9 -23 -10 -23 -10 -2 -1 12 2 30 6 40 6 15 8 15
11 2 1 -8 -2 -26 -7 -40z m1232 -72 c-8 -13 -33 68 -32 103 0 15 7 2 19 -34
10 -33 16 -64 13 -69z m986 14 c5 -52 6 -102 3 -110 -12 -30 -21 24 -21 124 1
118 5 114 18 -14z m-2397 32 l-9 -28 -8 37 c-8 44 4 73 18 41 6 -13 6 -32 -1
-50z m2628 -79 c18 -210 17 -225 -22 -306 l-35 -73 -8 80 c-6 63 -3 102 14
195 11 63 21 147 21 185 1 107 19 58 30 -81z m-5233 81 c-3 -29 -11 -62 -17
-72 -9 -15 -10 -12 -6 16 3 18 6 51 6 72 0 23 5 39 11 39 8 0 10 -17 6 -55z
m-3697 8 c0 -32 -5 -28 -14 10 -4 19 -3 26 4 22 5 -3 10 -18 10 -32z m1824 -7
c-3 -21 -9 -35 -11 -32 -3 3 -2 21 1 42 4 20 10 34 12 31 3 -3 2 -21 -2 -41z
m3791 -67 c-11 -50 -25 -43 -25 13 0 29 -3 64 -5 78 -3 15 3 7 16 -18 14 -29
18 -53 14 -73z m1845 73 c0 -7 -4 -10 -10 -7 -5 3 -10 16 -10 28 0 18 2 19 10
7 5 -8 10 -21 10 -28z m-5158 -149 c-5 -178 -22 -154 -22 30 1 129 3 147 13
122 8 -20 11 -73 9 -152z m605 145 c-3 -7 -5 -2 -5 12 0 14 2 19 5 13 2 -7 2
-19 0 -25z m3230 -15 c-3 -10 -5 -2 -5 17 0 19 2 27 5 18 2 -10 2 -26 0 -35z
m1040 -20 c-2 -16 -4 -5 -4 22 0 28 2 40 4 28 2 -13 2 -35 0 -50z m-269 -121
c10 -84 17 -152 15 -152 -1 0 -9 15 -17 34 -13 30 -33 306 -21 280 3 -6 14
-79 23 -162z m2264 60 c-2 -59 3 -169 12 -244 9 -76 16 -177 16 -225 0 -83
-25 -341 -33 -350 -2 -2 -7 27 -11 64 -4 38 -18 135 -32 216 -25 144 -25 152
-11 240 9 51 19 151 23 222 4 79 12 141 20 158 8 15 16 27 17 27 1 0 1 -49 -1
-108z m-885 56 c-3 -8 -6 -5 -6 6 -1 11 2 17 5 13 3 -3 4 -12 1 -19z m-2157
-42 c0 -26 -6 -18 -14 19 -5 22 -4 26 4 15 5 -8 10 -24 10 -34z m197 12 c-3
-7 -5 -2 -5 12 0 14 2 19 5 13 2 -7 2 -19 0 -25z m1098 -96 c-10 -53 -21 -101
-25 -105 -4 -5 -6 2 -4 15 26 181 36 230 42 205 2 -10 -4 -62 -13 -115z m1147
61 l-10 -48 -1 60 c-1 43 2 56 10 48 8 -8 9 -25 1 -60z m-1292 35 c0 -18 -2
-20 -9 -8 -6 8 -7 18 -5 22 9 14 14 9 14 -14z m1790 -28 c-17 -32 -22 -18 -8
21 8 22 13 28 16 17 2 -9 -2 -27 -8 -38z m-9059 -30 l-10 -25 0 25 c-1 14 3
36 7 50 l7 25 3 -25 c2 -14 -2 -37 -7 -50z m3238 7 c-10 -36 -24 -52 -16 -17
4 14 7 36 7 50 0 18 3 21 9 11 5 -8 5 -27 0 -44z m4238 31 c-3 -8 -6 -5 -6 6
-1 11 2 17 5 13 3 -3 4 -12 1 -19z m808 -49 l5 -54 -15 50 c-18 60 -19 83 -5
69 6 -6 13 -35 15 -65z m-7215 33 c0 -9 -5 -24 -10 -32 -7 -11 -10 -5 -10 23
0 23 4 36 10 32 6 -3 10 -14 10 -23z m7160 -2 c0 -16 -4 -30 -8 -30 -5 0 -7
14 -4 30 2 17 6 30 8 30 2 0 4 -13 4 -30z m-1746 -209 c-11 -25 -32 55 -33
124 -1 43 4 68 17 85 17 25 17 23 20 -84 1 -61 0 -117 -4 -125z m-4775 100 c0
-32 -3 -70 -8 -83 -6 -16 -9 13 -9 92 0 117 14 110 17 -9z m1005 103 c3 -8 2
-12 -4 -9 -6 3 -10 10 -10 16 0 14 7 11 14 -7z m3546 -202 c-8 -13 -10 1 -6
53 3 39 6 93 8 120 1 28 4 4 5 -53 2 -62 -1 -109 -7 -120z m1015 121 l4 -68
-13 50 c-8 28 -14 66 -15 85 -1 64 19 7 24 -67z m458 36 c-8 -29 -13 -23 -13
14 0 22 3 28 9 18 5 -7 6 -22 4 -32z m-2176 -16 c-3 -10 -5 -4 -5 12 0 17 2
24 5 18 2 -7 2 -21 0 -30z m2379 -19 c-4 -19 -11 -32 -15 -30 -5 3 -3 24 3 46
12 48 21 36 12 -16z m-7278 -46 c-3 -15 -1 -25 4 -22 11 7 10 -48 -2 -66 -8
-13 -10 -12 -11 5 -1 11 -1 24 0 29 1 5 -3 12 -9 16 -6 4 -8 29 -3 71 6 62 7
63 16 29 5 -19 7 -47 5 -62z m5477 62 c-4 -12 -9 -19 -12 -17 -3 3 -2 15 2 27
4 12 9 19 12 17 3 -3 2 -15 -2 -27z m-6054 -45 c-8 -36 -9 -37 -10 -10 -1 36
12 87 16 65 2 -9 -1 -33 -6 -55z m7375 8 c-4 -32 -8 -71 -10 -88 -2 -16 -7
-84 -11 -150 -10 -161 -27 -186 -20 -30 2 66 6 140 8 165 5 57 27 160 34 160
3 0 2 -26 -1 -57z m157 30 c8 -17 11 -40 7 -58 -8 -35 -15 -22 -24 43 -7 49
-2 53 17 15z m-1545 -138 l-1 -60 -8 45 c-4 25 -7 72 -7 105 l1 60 8 -45 c4
-25 7 -72 7 -105z m2993 93 l-9 -33 -1 36 c-1 20 2 39 6 43 13 12 15 -10 4
-46z m-3435 19 c-3 -13 -1 -38 4 -57 11 -37 2 -120 -13 -120 -6 0 -8 27 -5 71
3 41 2 65 -3 58 -10 -17 -11 -3 -3 40 4 17 11 31 16 31 6 0 8 -11 4 -23z
m-4569 -69 c-2 -18 -4 -6 -4 27 0 33 2 48 4 33 2 -15 2 -42 0 -60z m3613 25
c-1 -38 -3 -44 -11 -30 -9 16 -4 77 7 77 2 0 4 -21 4 -47z m3744 -34 c2 -35 7
-82 11 -104 9 -49 -5 -38 -28 22 -13 34 -15 53 -7 94 6 28 10 54 10 57 0 3 2
3 5 0 3 -3 7 -34 9 -69z m-2287 -1 c-2 -13 -4 -3 -4 22 0 25 2 35 4 23 2 -13
2 -33 0 -45z m717 -24 l6 -49 -14 35 c-8 19 -15 51 -15 70 0 29 2 31 9 14 5
-12 11 -43 14 -70z m-1979 -40 l-8 -59 -14 65 c-7 36 -11 76 -7 90 l6 25 15
-31 c12 -24 14 -46 8 -90z m-3768 74 c-3 -7 -5 -2 -5 12 0 14 2 19 5 13 2 -7
2 -19 0 -25z m6440 -15 c-3 -10 -5 -2 -5 17 0 19 2 27 5 18 2 -10 2 -26 0 -35z
m-313 -6 c4 -19 3 -26 -4 -22 -5 3 -10 18 -10 32 0 32 5 28 14 -10z m466 -71
c0 -64 -12 -86 -28 -52 -6 14 -8 48 -5 82 5 51 8 55 20 39 7 -11 13 -42 13
-69z m562 30 c-9 -18 -11 -16 -11 19 0 33 1 37 10 21 8 -12 8 -25 1 -40z
m-8178 -47 c4 -35 1 -72 -8 -104 l-14 -50 0 125 c-1 126 10 139 22 29z m1035
-42 c1 -16 -3 -26 -9 -22 -5 3 -9 39 -9 78 l2 72 7 -50 c5 -27 9 -63 9 -78z
m310 91 c-1 -13 -5 -36 -9 -53 -7 -26 -8 -22 -9 23 0 29 3 52 9 52 6 0 9 -10
9 -22z m-204 -75 c7 -60 -9 -29 -19 37 -4 32 -3 40 4 28 6 -9 13 -38 15 -65z
m1103 42 c-1 -19 -5 -32 -10 -29 -11 7 -10 64 2 64 5 0 9 -16 8 -35z m2921
-22 l-1 -48 -9 35 c-4 19 -6 41 -4 48 9 25 15 10 14 -35z m2917 -27 c4 -25 3
-53 -1 -63 -7 -16 -9 -15 -15 7 -12 39 -12 139 0 118 6 -9 13 -37 16 -62z
m435 -79 c-8 -8 -11 7 -11 49 0 79 14 93 18 18 2 -31 -2 -62 -7 -67z m-191 50
c7 -28 10 -68 8 -87 l-4 -35 -13 30 c-18 38 -28 160 -13 151 6 -3 16 -30 22
-59z m-8123 21 c-3 -7 -5 -2 -5 12 0 14 2 19 5 13 2 -7 2 -19 0 -25z m413 3
c0 -16 3 -38 6 -48 4 -14 4 -15 -4 -3 -16 25 -25 80 -13 80 6 0 11 -13 11 -29z
m7940 -8 c0 -7 -4 -13 -10 -13 -5 0 -10 12 -10 28 0 21 2 24 10 12 5 -8 10
-21 10 -27z m-4513 -30 c-3 -10 -5 -4 -5 12 0 17 2 24 5 18 2 -7 2 -21 0 -30z
m572 -47 c-9 -8 -10 -3 -5 23 3 18 7 41 8 50 1 9 3 -1 5 -23 3 -22 -1 -43 -8
-50z m-5013 -88 c9 -43 14 -83 12 -89 -3 -10 -41 153 -54 231 -8 50 27 -67 42
-142z m653 -28 c-5 -9 -8 25 -7 85 l1 100 7 -85 c4 -47 4 -92 -1 -100z m8500
92 c-15 -39 -21 -20 -13 39 8 53 8 53 15 20 4 -19 3 -46 -2 -59z m-4497 -27
l-9 -70 -2 81 c0 44 2 84 7 88 12 13 13 -24 4 -99z m-4623 50 l0 -20 -9 20
c-5 11 -9 27 -9 35 -1 13 0 13 9 0 5 -8 9 -24 9 -35z m9255 -135 l-7 -55 -10
45 c-13 56 -14 126 -2 165 8 27 9 24 17 -35 5 -36 6 -90 2 -120z m-8744 40
c-12 -52 -24 -97 -27 -100 -10 -10 9 125 25 180 25 82 26 30 2 -80z m469 -54
c1 -16 -2 -27 -5 -23 -10 10 -52 196 -45 202 7 8 49 -141 50 -179z m6539 78
c1 11 4 17 7 14 4 -3 3 -18 -1 -33 -10 -41 -24 -10 -22 50 l1 50 7 -50 c4 -27
8 -41 8 -31z m-5818 6 l-11 -25 6 25 c2 14 5 34 6 45 2 19 2 19 6 0 2 -12 -1
-32 -7 -45z m5550 -14 c0 -26 -6 -18 -14 19 -5 22 -4 26 4 15 5 -8 10 -24 10
-34z m641 -17 c-10 -23 -10 -23 -10 7 -1 17 2 34 7 38 11 12 14 -18 3 -45z
m825 -17 c-11 -10 -14 3 -7 38 l6 35 3 -33 c2 -19 1 -36 -2 -40z m165 35 c-8
-8 -11 -7 -11 4 0 20 13 34 18 19 3 -7 -1 -17 -7 -23z m763 -87 l-8 -65 -6 44
c-4 24 -2 66 4 95 9 44 11 47 14 21 2 -16 0 -59 -4 -95z m-5936 50 l0 -25 -8
25 c-4 14 -8 34 -8 45 l-1 20 9 -20 c5 -11 8 -31 8 -45z m5427 10 c-4 -12 -9
-19 -12 -17 -3 3 -2 15 2 27 4 12 9 19 12 17 3 -3 2 -15 -2 -27z m-8540 -117
c-4 -24 -10 -45 -16 -48 -11 -7 -12 91 -2 150 l7 40 8 -50 c5 -27 6 -69 3 -92z
m6678 98 c2 -10 1 -25 -4 -32 -6 -10 -9 -4 -9 19 0 36 5 42 13 13z m1154 -18
c-3 -10 -5 -4 -5 12 0 17 2 24 5 18 2 -7 2 -21 0 -30z m-8357 -60 c0 -18 -4
-33 -10 -33 -5 0 -10 17 -10 38 0 20 -3 48 -5 62 -5 22 -3 21 9 -5 9 -16 15
-45 16 -62z m7730 2 c0 -27 -7 -72 -15 -100 l-15 -50 5 70 c3 39 5 90 5 115 0
33 3 41 10 30 5 -8 10 -37 10 -65z m-635 -45 c3 -33 2 -60 -3 -60 -5 0 -9 12
-9 28 0 15 -3 52 -6 82 -6 41 -5 49 3 32 5 -13 12 -50 15 -82z m-2208 58 c-3
-7 -5 -2 -5 12 0 14 2 19 5 13 2 -7 2 -19 0 -25z m1342 -27 c9 -55 -2 -81 -13
-30 -7 39 -8 94 -1 87 3 -3 9 -29 14 -57z m-5782 27 c-3 -8 -6 -5 -6 6 -1 11
2 17 5 13 3 -3 4 -12 1 -19z m8680 -20 c-3 -8 -6 -5 -6 6 -1 11 2 17 5 13 3
-3 4 -12 1 -19z m-8690 -20 c-3 -8 -6 -5 -6 6 -1 11 2 17 5 13 3 -3 4 -12 1
-19z m8187 7 c3 -8 1 -15 -4 -15 -6 0 -10 7 -10 15 0 8 2 15 4 15 2 0 6 -7 10
-15z m-8148 -196 l-16 -54 6 95 c7 127 18 165 22 79 2 -39 -4 -89 -12 -120z
m3207 99 l-11 -43 0 65 c-1 53 1 61 10 43 8 -16 8 -36 1 -65z m4644 5 c-2 -16
-4 -5 -4 22 0 28 2 40 4 28 2 -13 2 -35 0 -50z m-6039 -55 c-5 -76 -22 -147
-33 -136 -5 5 11 153 20 196 11 48 17 18 13 -60z m1339 60 c-3 -8 -6 -5 -6 6
-1 11 2 17 5 13 3 -3 4 -12 1 -19z m220 -80 c-2 -18 -4 -4 -4 32 0 36 2 50 4
33 2 -18 2 -48 0 -65z m-3910 40 c-3 -7 -5 -2 -5 12 0 14 2 19 5 13 2 -7 2
-19 0 -25z m4600 -30 c-2 -13 -4 -3 -4 22 0 25 2 35 4 23 2 -13 2 -33 0 -45z
m2578 -5 c-3 -19 -9 -33 -12 -30 -3 3 -2 25 2 49 5 24 10 37 12 30 3 -7 2 -29
-2 -49z m372 5 c-2 -13 -4 -5 -4 17 -1 22 1 32 4 23 2 -10 2 -28 0 -40z
m-1868 -108 c-6 -74 -17 -157 -24 -185 l-13 -50 -1 81 c-1 44 4 85 9 90 6 6
12 49 13 95 3 75 12 118 23 107 1 -2 -2 -64 -7 -138z m-5651 -45 c0 -31 -3
-23 -14 35 -17 99 -16 155 2 70 7 -36 13 -83 12 -105z m9318 43 l37 -111 -7
-171 c-6 -159 -16 -277 -33 -386 -6 -43 -7 -44 -14 -15 -3 17 -7 50 -8 76 0
25 -6 50 -13 57 -18 18 -30 325 -18 487 5 77 10 148 10 158 0 34 9 16 46 -95z
m-2659 20 c-4 -45 -11 -86 -16 -91 -8 -8 -7 33 5 131 9 74 17 45 11 -40z
m-2730 -85 c-2 -27 -3 -5 -3 47 0 52 1 74 3 48 2 -27 2 -69 0 -95z m3249 -61
c-9 -71 -16 -144 -16 -162 0 -53 -9 -30 -30 76 -18 95 -18 102 -2 164 l17 65
3 -62 c4 -94 22 -76 23 25 1 75 3 82 11 55 8 -24 6 -67 -6 -161z m-6739 81
c-3 -10 -5 -4 -5 12 0 17 2 24 5 18 2 -7 2 -21 0 -30z m1884 -38 c-6 -58 -7
-59 -14 -24 -4 21 -3 48 3 64 15 39 17 29 11 -40z m2716 -17 c-2 -18 -4 -6 -4
27 0 33 2 48 4 33 2 -15 2 -42 0 -60z m-910 10 c-3 -7 -5 -2 -5 12 0 14 2 19
5 13 2 -7 2 -19 0 -25z m2830 -40 c-2 -13 -4 -3 -4 22 0 25 2 35 4 23 2 -13 2
-33 0 -45z m-6950 0 c-3 -8 -6 -5 -6 6 -1 11 2 17 5 13 3 -3 4 -12 1 -19z
m8350 -70 c-3 -7 -5 -2 -5 12 0 14 2 19 5 13 2 -7 2 -19 0 -25z m-5418 -93 c1
-23 -2 -26 -9 -15 -5 8 -9 40 -9 70 l1 55 9 -40 c4 -22 8 -53 8 -70z m1468
-62 c2 -34 0 -93 -7 -130 -30 -184 -31 -201 -20 -498 6 -170 14 -303 20 -309
12 -12 14 -256 2 -256 -7 0 -42 248 -42 302 0 14 -3 28 -7 30 -5 2 -23 62 -41
133 l-33 130 15 105 c9 58 16 155 16 215 1 61 7 142 14 180 l14 70 2 -60 c2
-33 5 -49 7 -35 3 14 9 29 14 35 5 5 9 32 9 61 0 28 3 80 7 115 l7 64 9 -45
c5 -25 11 -73 14 -107z m630 115 c-3 -7 -5 -2 -5 12 0 14 2 19 5 13 2 -7 2
-19 0 -25z m3390 -46 c-10 -94 -28 -122 -21 -32 3 41 8 78 11 83 12 20 15 2
10 -51z m618 -147 c-4 -41 -10 -73 -14 -70 -10 6 -13 212 -4 250 12 50 27 -92
18 -180z m-2423 143 c-5 -71 -10 -77 -11 -15 0 31 2 57 7 57 4 0 6 -19 4 -42z
m-2265 -70 c-2 -18 -4 -4 -4 32 0 36 2 50 4 33 2 -18 2 -48 0 -65z m2786 -320
c-3 -65 -9 -118 -13 -118 -6 0 -20 89 -51 312 -11 80 -12 202 -2 212 4 4 22
-59 40 -140 29 -135 31 -158 26 -266z m-6746 340 c-2 -13 -4 -3 -4 22 0 25 2
35 4 23 2 -13 2 -33 0 -45z m2588 -58 c16 -105 16 -132 6 -227 -7 -59 -15
-111 -18 -116 -3 -5 -14 10 -24 33 -16 35 -19 67 -19 178 0 125 15 252 30 252
3 0 14 -54 25 -120z m3982 68 c-3 -7 -5 -2 -5 12 0 14 2 19 5 13 2 -7 2 -19 0
-25z m621 -93 c0 -33 -3 -69 -8 -80 -5 -13 -8 20 -8 90 0 71 3 99 8 80 4 -16
8 -57 8 -90z m-6989 73 c0 -18 -4 -42 -9 -53 -6 -15 -9 -6 -9 33 -1 28 4 52 9
52 6 0 10 -15 9 -32z m3188 -30 c-3 -8 -6 -5 -6 6 -1 11 2 17 5 13 3 -3 4 -12
1 -19z m4749 -30 c-4 -31 -3 -37 3 -23 7 13 8 -7 4 -60 -9 -125 -23 -133 -18
-10 4 140 4 135 11 135 3 0 3 -19 0 -42z m-1906 -30 c0 -32 -3 -39 -10 -28
-13 20 -13 70 0 70 6 0 10 -19 10 -42z m31 -186 c-29 -259 -30 -262 -26 -127
3 139 31 357 42 327 3 -6 -5 -96 -16 -200z m-4788 36 c6 -169 -6 -217 -17 -69
-6 74 1 239 9 229 1 -2 5 -74 8 -160z m-1486 110 c-3 -7 -5 -2 -5 12 0 14 2
19 5 13 2 -7 2 -19 0 -25z m4385 -3 c-2 -14 -6 -25 -8 -25 -2 0 -4 11 -4 25 0
14 4 25 9 25 4 0 6 -11 3 -25z m-2825 -77 c-2 -18 -4 -4 -4 32 0 36 2 50 4 33
2 -18 2 -48 0 -65z m6498 0 c-3 -51 -10 -109 -14 -128 l-8 -35 -8 38 c-4 21
-2 66 4 105 18 100 21 112 27 112 4 0 3 -42 -1 -92z m-4513 -48 l-10 -55 -1
86 c0 47 2 89 7 93 11 12 14 -63 4 -124z m5123 75 c-3 -26 -9 -44 -12 -41 -3
3 -2 26 2 51 3 26 9 44 12 41 3 -3 2 -26 -2 -51z m-8538 -47 c-2 -18 -4 -4 -4
32 0 36 2 50 4 33 2 -18 2 -48 0 -65z m3221 -125 c-1 -134 -4 -190 -9 -158
-15 103 -10 365 7 365 2 0 3 -93 2 -207z m3979 150 c-3 -10 -5 -2 -5 17 0 19
2 27 5 18 2 -10 2 -26 0 -35z m-5652 -75 c-13 -294 -32 -477 -48 -452 -3 6 -2
26 3 45 6 19 10 119 10 224 0 219 7 295 26 295 10 0 12 -24 9 -112z m1344 29
l-2 -62 -8 45 c-11 64 -11 92 1 85 6 -3 9 -34 9 -68z m-191 -7 c1 -23 0 -23
-8 -5 -5 11 -8 34 -8 50 0 29 0 29 8 5 4 -14 8 -36 8 -50z m-2888 51 c0 -6 -4
-13 -10 -16 -5 -3 -10 1 -10 9 0 9 5 16 10 16 6 0 10 -4 10 -9z m6207 -23 c-3
-7 -5 -2 -5 12 0 14 2 19 5 13 2 -7 2 -19 0 -25z m332 -63 c0 -33 -4 -67 -9
-75 -7 -10 -10 15 -9 80 0 62 3 88 9 75 5 -11 9 -47 9 -80z m-3112 -97 c-2
-35 -3 -7 -3 62 0 69 1 97 3 63 2 -35 2 -91 0 -125z m270 150 c-3 -8 -6 -5 -6
6 -1 11 2 17 5 13 3 -3 4 -12 1 -19z m-1247 -543 c-13 -163 -36 -325 -39 -265
-1 19 -6 53 -11 75 -5 24 -5 88 0 160 5 66 11 165 13 220 3 55 13 161 23 235
l19 135 3 -205 c2 -113 -2 -272 -8 -355z m2011 465 l-9 -55 -1 45 c0 25 2 56
6 70 12 41 14 0 4 -60z m-156 -73 l-14 -42 0 77 c-1 98 11 134 20 60 4 -33 2
-67 -6 -95z m1845 134 c0 -6 -4 -13 -10 -16 -5 -3 -10 1 -10 9 0 9 5 16 10 16
6 0 10 -4 10 -9z m-6095 -140 c-4 -58 -13 -191 -20 -296 -7 -104 -13 -174 -14
-155 -1 19 -8 140 -16 269 -9 129 -13 236 -10 239 3 3 5 -2 5 -11 0 -10 8 -17
20 -17 18 0 20 7 20 58 1 46 3 53 12 38 7 -13 8 -53 3 -125z m6865 42 c0 -59
-4 -92 -9 -83 -8 14 -3 180 5 180 2 0 4 -44 4 -97z m-4230 -23 c0 -99 -9 -134
-23 -96 -5 13 14 206 20 206 2 0 3 -49 3 -110z m-2513 68 c-3 -7 -5 -2 -5 12
0 14 2 19 5 13 2 -7 2 -19 0 -25z m8056 -211 l-9 -72 -8 130 c-4 72 -4 144 0
160 14 49 27 -133 17 -218z m76 196 c-1 -27 -5 -79 -9 -118 -7 -62 -7 -56 -6
47 0 65 4 118 9 118 4 0 6 -21 6 -47z m-4378 -85 c-10 -31 -11 -30 -6 16 3 27
6 63 7 80 1 19 3 14 5 -16 2 -25 -1 -61 -6 -80z m3486 55 c-2 -16 -4 -5 -4 22
0 28 2 40 4 28 2 -13 2 -35 0 -50z m-4384 -245 c-3 -54 -10 -98 -14 -98 -5 0
-9 12 -10 28 -2 63 2 163 8 257 l8 100 6 -95 c4 -52 5 -139 2 -192z m697 205
c0 -47 -4 -72 -9 -63 -8 14 -3 140 5 140 2 0 4 -35 4 -77z m-2120 -113 c-12
-47 -25 -117 -30 -156 -7 -56 -8 -45 -4 56 7 165 45 337 52 236 2 -29 -6 -87
-18 -136z m3663 75 c0 -22 -4 -78 -8 -125 -6 -61 -10 -78 -15 -59 -13 45 -22
214 -14 255 l7 39 15 -35 c9 -19 15 -53 15 -75z m3414 38 c-3 -10 -5 -4 -5 12
0 17 2 24 5 18 2 -7 2 -21 0 -30z m-4558 -133 c0 -36 -4 -72 -9 -80 -7 -10 -9
28 -9 115 1 101 3 119 9 80 5 -27 9 -79 9 -115z m3768 138 c-3 -8 -6 -5 -6 6
-1 11 2 17 5 13 3 -3 4 -12 1 -19z m-329 -88 c0 -47 -2 -58 -8 -40 -11 35 -11
151 0 125 5 -11 8 -49 8 -85z m-6669 -91 c-6 -96 -13 -176 -16 -179 -7 -7 5
298 13 333 13 56 14 16 3 -154z m1281 150 c0 -17 -4 -28 -10 -24 -5 3 -10 17
-10 31 0 13 5 24 10 24 6 0 10 -14 10 -31z m2261 -124 l-9 -40 -1 55 c0 30 3
73 7 95 l7 40 3 -55 c1 -30 -1 -73 -7 -95z m-534 103 c-3 -7 -5 -2 -5 12 0 14
2 19 5 13 2 -7 2 -19 0 -25z m-3087 17 c0 -2 -5 -16 -12 -30 -8 -18 -14 -22
-20 -13 -15 24 -9 48 12 48 11 0 20 -2 20 -5z m5734 -72 l-8 -58 -6 44 c-8 54
-2 97 13 82 6 -6 6 -31 1 -68z m-3925 24 c0 -18 -4 -41 -9 -52 -6 -14 -9 -4
-9 38 -1 36 3 56 9 52 6 -3 10 -21 9 -38z m-2902 -39 c-2 -13 -4 -3 -4 22 0
25 2 35 4 23 2 -13 2 -33 0 -45z m746 -10 c-3 -40 -12 -93 -20 -118 l-13 -45
5 45 c3 25 8 78 12 118 3 39 10 72 15 72 4 0 5 -33 1 -72z m2382 7 c-3 -31 -9
-55 -11 -52 -3 2 -2 30 2 61 4 31 9 54 12 52 2 -3 1 -30 -3 -61z m1062 23 c-3
-7 -5 -2 -5 12 0 14 2 19 5 13 2 -7 2 -19 0 -25z m-1718 -23 c0 -5 -4 -3 -9 5
-5 8 -9 22 -9 30 0 16 17 -16 18 -35z m2689 -85 c-3 -74 -9 -115 -18 -123 -10
-10 -12 -8 -6 8 5 11 10 66 13 123 3 56 8 102 11 102 2 0 3 -50 0 -110z m3573
31 c-8 -22 -9 -19 -10 24 0 42 2 46 10 26 6 -15 6 -34 0 -50z m-5805 -51 l-14
-65 -1 51 c-1 28 2 67 6 85 5 29 7 31 15 14 5 -13 3 -45 -6 -85z m6021 78 c-3
-8 -6 -5 -6 6 -1 11 2 17 5 13 3 -3 4 -12 1 -19z m-540 -65 c-2 -16 -4 -5 -4
22 0 28 2 40 4 28 2 -13 2 -35 0 -50z m-8374 -362 c-10 -15 -14 25 -20 175 -3
94 -2 188 3 209 7 30 10 -14 14 -170 3 -115 4 -212 3 -214z m7421 229 c-7 -78
-8 -82 -15 -45 -8 40 -4 141 9 205 6 33 7 31 10 -20 2 -30 0 -93 -4 -140z
m-4315 113 c0 -47 -3 -62 -9 -48 -14 34 -10 115 6 115 2 0 4 -30 3 -67z
m-2895 -263 c15 -315 7 -423 -12 -168 -20 257 -25 394 -17 445 5 26 10 41 12
33 1 -8 9 -148 17 -310z m276 174 c-23 -85 -34 -131 -49 -209 -10 -50 -10 -49
-7 20 5 90 70 357 74 304 2 -20 -7 -72 -18 -115z m1613 -76 c-3 -76 -10 -135
-15 -132 -10 6 -11 206 -1 295 l7 64 7 -45 c4 -25 5 -107 2 -182z m5006 -30
c0 -5 8 -8 16 -8 13 0 15 -22 15 -140 0 -77 -4 -140 -8 -140 -13 0 -42 308
-40 425 l2 110 6 -120 c4 -66 8 -123 9 -127z m1162 152 c-7 -46 -9 -49 -10
-19 -1 42 12 112 16 89 2 -8 -1 -40 -6 -70z m-91 -141 c-26 -211 -39 -239 -20
-46 13 142 30 250 38 243 3 -3 -6 -92 -18 -197z m-7193 144 c-3 -10 -5 -2 -5
17 0 19 2 27 5 18 2 -10 2 -26 0 -35z m2650 0 c-4 -27 -9 -82 -14 -123 -5 -57
-8 -68 -13 -45 -4 17 -3 40 2 53 4 13 8 55 8 93 0 44 4 69 11 69 8 0 10 -15 6
-47z m4830 0 c-3 -10 -5 -2 -5 17 0 19 2 27 5 18 2 -10 2 -26 0 -35z m-648
-149 c-5 -87 -12 -160 -13 -162 -2 -1 -7 34 -10 80 -5 58 -2 107 9 161 8 43
15 81 15 85 0 3 2 3 5 0 3 -2 0 -76 -6 -164z m756 68 c-4 -29 -9 -51 -12 -48
-3 2 -2 38 3 78 4 40 10 62 12 49 2 -14 1 -49 -3 -79z m-3568 -62 c13 0 15 -8
9 -52 -3 -29 -6 -89 -7 -133 -1 -74 -2 -76 -10 -35 -14 76 -26 272 -20 325 6
46 6 44 9 -27 2 -64 6 -78 19 -78z m-1027 103 c0 -43 -5 -41 -13 5 -4 18 -2
32 3 32 6 0 10 -16 10 -37z m-2936 -45 c-4 -40 -8 -75 -10 -77 -2 -2 -4 30 -4
72 0 45 4 77 10 77 6 0 8 -26 4 -72z m4444 -193 c-1 -126 -3 -145 -8 -90 -11
99 -10 366 0 300 5 -27 8 -122 8 -210z m-5189 -15 c-10 -66 -14 -78 -19 -55
-3 17 -2 50 2 75 4 25 8 90 9 145 l2 100 9 -90 c7 -64 6 -114 -3 -175z m3211
165 l-7 -60 -1 75 c-1 43 2 69 7 60 4 -8 5 -42 1 -75z m4792 24 l-10 -44 -1
55 c-1 39 2 51 10 43 7 -7 8 -24 1 -54z m-2125 -16 c-2 -16 -4 -5 -4 22 0 28
2 40 4 28 2 -13 2 -35 0 -50z m-5218 4 c-1 -76 -18 -89 -18 -14 -1 43 3 66 9
62 6 -3 10 -25 9 -48z m2158 21 c-3 -7 -5 -2 -5 12 0 14 2 19 5 13 2 -7 2 -19
0 -25z m1806 5 c5 -27 -10 -183 -19 -192 -2 -2 -4 46 -4 107 0 106 11 146 23
85z m-3116 -50 c-2 -16 -4 -5 -4 22 0 28 2 40 4 28 2 -13 2 -35 0 -50z m1053
24 c0 -18 -2 -19 -10 -7 -13 20 -13 43 0 35 6 -3 10 -16 10 -28z m5561 -348
c-12 -30 -14 176 -3 301 6 75 7 64 10 -96 1 -100 -2 -192 -7 -205z m-3324 309
c-2 -13 -4 -5 -4 17 -1 22 1 32 4 23 2 -10 2 -28 0 -40z m-1110 10 c-3 -8 -6
-5 -6 6 -1 11 2 17 5 13 3 -3 4 -12 1 -19z m-3413 -138 c3 -47 2 -143 -3 -215
l-8 -130 -1 126 c-1 69 -4 175 -7 235 -6 128 10 115 19 -16z m4362 1 c-8 -92
-23 -170 -25 -123 -1 34 21 212 27 212 2 0 1 -40 -2 -89z m3364 -45 c0 -60 -2
-107 -4 -105 -2 2 -6 58 -10 124 -4 81 -3 115 4 105 5 -8 10 -64 10 -124z
m-7671 42 l-2 -83 -8 75 c-7 68 -5 90 7 90 2 0 3 -37 3 -82z m1488 0 c-2 -13
-4 -3 -4 22 0 25 2 35 4 23 2 -13 2 -33 0 -45z m-2040 0 c-2 -13 -4 -5 -4 17
-1 22 1 32 4 23 2 -10 2 -28 0 -40z m5810 -25 c-3 -10 -5 -2 -5 17 0 19 2 27
5 18 2 -10 2 -26 0 -35z m1898 -65 c11 -164 8 -235 -9 -217 -10 10 -18 329 -8
329 5 0 13 -48 17 -112z m-5695 47 c0 -33 -28 -243 -37 -275 -7 -26 -20 105
-22 233 l-1 67 30 0 c25 0 30 -4 30 -25z m-2033 -87 c-2 -13 -4 -5 -4 17 -1
22 1 32 4 23 2 -10 2 -28 0 -40z m8090 30 c-3 -8 -6 -5 -6 6 -1 11 2 17 5 13
3 -3 4 -12 1 -19z m-7867 -47 c0 -17 -4 -33 -10 -36 -6 -4 -10 8 -10 29 0 20
5 36 10 36 6 0 10 -13 10 -29z m2640 7 c0 -13 3 -34 7 -48 3 -14 2 -22 -2 -18
-11 11 -24 88 -14 88 5 0 9 -10 9 -22z m4527 -149 l-13 -134 -8 73 c-5 41 -5
108 -1 149 6 65 9 73 21 61 12 -12 13 -33 1 -149z m-7041 129 c-4 -13 -10 -87
-13 -165 -6 -155 -22 -186 -22 -45 -1 100 17 232 32 232 5 0 6 -10 3 -22z
m806 -258 l-9 -105 -2 116 c0 64 2 138 7 165 l7 49 3 -60 c1 -33 -2 -107 -6
-165z m-1155 153 c-3 -10 -5 -2 -5 17 0 19 2 27 5 18 2 -10 2 -26 0 -35z
m1190 -45 c-3 -7 -5 -2 -5 12 0 14 2 19 5 13 2 -7 2 -19 0 -25z m-658 -115 c0
-47 -3 -62 -9 -48 -12 28 -12 115 0 115 6 0 10 -29 9 -67z"/>
<path d="M4621 5234 c0 -11 3 -14 6 -6 3 7 2 16 -1 19 -3 4 -6 -2 -5 -13z"/>
<path d="M4541 5144 c0 -11 3 -14 6 -6 3 7 2 16 -1 19 -3 4 -6 -2 -5 -13z"/>
<path d="M4902 5125 c0 -16 2 -22 5 -12 2 9 2 23 0 30 -3 6 -5 -1 -5 -18z"/>
<path d="M4911 5044 c0 -11 3 -14 6 -6 3 7 2 16 -1 19 -3 4 -6 -2 -5 -13z"/>
<path d="M8135 4980 c10 -11 20 -20 23 -20 3 0 -3 9 -13 20 -10 11 -20 20 -23
20 -3 0 3 -9 13 -20z"/>
<path d="M5062 4730 c0 -14 2 -19 5 -12 2 6 2 18 0 25 -3 6 -5 1 -5 -13z"/>
<path d="M7211 4514 c0 -11 3 -14 6 -6 3 7 2 16 -1 19 -3 4 -6 -2 -5 -13z"/>
<path d="M4890 4315 c13 -14 26 -25 28 -25 3 0 -5 11 -18 25 -13 14 -26 25
-28 25 -3 0 5 -11 18 -25z"/>
<path d="M3796 4467 c3 -10 9 -15 12 -12 3 3 0 11 -7 18 -10 9 -11 8 -5 -6z"/>
<path d="M4632 4400 c0 -14 2 -19 5 -12 2 6 2 18 0 25 -3 6 -5 1 -5 -13z"/>
<path d="M10152 4360 c0 -14 2 -19 5 -12 2 6 2 18 0 25 -3 6 -5 1 -5 -13z"/>
<path d="M6161 4164 c0 -11 3 -14 6 -6 3 7 2 16 -1 19 -3 4 -6 -2 -5 -13z"/>
<path d="M10803 3825 c0 -33 2 -45 4 -27 2 18 2 45 0 60 -2 15 -4 0 -4 -33z"/>
<path d="M10792 3730 c0 -14 2 -19 5 -12 2 6 2 18 0 25 -3 6 -5 1 -5 -13z"/>
<path d="M6171 1504 c1 -83 3 -92 10 -56 8 43 5 140 -6 150 -3 3 -5 -39 -4
-94z"/>
<path d="M3632 5690 c0 -19 2 -27 5 -17 2 9 2 25 0 35 -3 9 -5 1 -5 -18z"/>
<path d="M8491 5684 c0 -11 3 -14 6 -6 3 7 2 16 -1 19 -3 4 -6 -2 -5 -13z"/>
<path d="M5711 5644 c0 -11 3 -14 6 -6 3 7 2 16 -1 19 -3 4 -6 -2 -5 -13z"/>
<path d="M4352 5570 c0 -14 2 -19 5 -12 2 6 2 18 0 25 -3 6 -5 1 -5 -13z"/>
<path d="M6673 5555 c0 -22 2 -30 4 -17 2 12 2 30 0 40 -3 9 -5 -1 -4 -23z"/>
<path d="M9002 5565 c0 -16 2 -22 5 -12 2 9 2 23 0 30 -3 6 -5 -1 -5 -18z"/>
<path d="M6931 5494 c0 -11 3 -14 6 -6 3 7 2 16 -1 19 -3 4 -6 -2 -5 -13z"/>
<path d="M6752 5390 c0 -14 2 -19 5 -12 2 6 2 18 0 25 -3 6 -5 1 -5 -13z"/>
<path d="M5733 5325 c0 -44 2 -61 4 -37 2 23 2 59 0 80 -2 20 -4 1 -4 -43z"/>
<path d="M10191 5384 c0 -11 3 -14 6 -6 3 7 2 16 -1 19 -3 4 -6 -2 -5 -13z"/>
<path d="M3931 5374 c0 -11 3 -14 6 -6 3 7 2 16 -1 19 -3 4 -6 -2 -5 -13z"/>
<path d="M4232 5340 c0 -19 2 -27 5 -17 2 9 2 25 0 35 -3 9 -5 1 -5 -18z"/>
<path d="M5702 5345 c0 -16 2 -22 5 -12 2 9 2 23 0 30 -3 6 -5 -1 -5 -18z"/>
<path d="M6742 5340 c0 -14 2 -19 5 -12 2 6 2 18 0 25 -3 6 -5 1 -5 -13z"/>
<path d="M9661 5344 c0 -11 3 -14 6 -6 3 7 2 16 -1 19 -3 4 -6 -2 -5 -13z"/>
<path d="M7021 5303 c-1 -17 4 -35 9 -38 11 -7 11 9 0 45 -8 24 -8 24 -9 -7z"/>
<path d="M7141 5314 c0 -11 3 -14 6 -6 3 7 2 16 -1 19 -3 4 -6 -2 -5 -13z"/>
<path d="M7981 5308 c-1 -16 4 -28 9 -28 12 0 12 8 0 35 -8 18 -9 17 -9 -7z"/>
<path d="M5692 5285 c0 -16 2 -22 5 -12 2 9 2 23 0 30 -3 6 -5 -1 -5 -18z"/>
<path d="M6732 5290 c0 -14 2 -19 5 -12 2 6 2 18 0 25 -3 6 -5 1 -5 -13z"/>
<path d="M3562 5230 c0 -19 2 -27 5 -17 2 9 2 25 0 35 -3 9 -5 1 -5 -18z"/>
<path d="M7116 5245 c-9 -26 -7 -32 5 -12 6 10 9 21 6 23 -2 3 -7 -2 -11 -11z"/>
<path d="M1641 5234 c0 -11 3 -14 6 -6 3 7 2 16 -1 19 -3 4 -6 -2 -5 -13z"/>
<path d="M5682 5205 c0 -16 2 -22 5 -12 2 9 2 23 0 30 -3 6 -5 -1 -5 -18z"/>
<path d="M5411 5194 c0 -11 3 -14 6 -6 3 7 2 16 -1 19 -3 4 -6 -2 -5 -13z"/>
<path d="M8882 5175 c0 -16 2 -22 5 -12 2 9 2 23 0 30 -3 6 -5 -1 -5 -18z"/>
<path d="M3252 5150 c0 -14 2 -19 5 -12 2 6 2 18 0 25 -3 6 -5 1 -5 -13z"/>
<path d="M2572 5140 c0 -14 2 -19 5 -12 2 6 2 18 0 25 -3 6 -5 1 -5 -13z"/>
<path d="M4042 5140 c0 -14 2 -19 5 -12 2 6 2 18 0 25 -3 6 -5 1 -5 -13z"/>
<path d="M10432 5130 c0 -14 2 -19 5 -12 2 6 2 18 0 25 -3 6 -5 1 -5 -13z"/>
<path d="M8873 5065 c0 -27 2 -38 4 -22 2 15 2 37 0 50 -2 12 -4 0 -4 -28z"/>
<path d="M7911 5054 c0 -11 3 -14 6 -6 3 7 2 16 -1 19 -3 4 -6 -2 -5 -13z"/>
<path d="M5502 5000 c0 -19 2 -27 5 -17 2 9 2 25 0 35 -3 9 -5 1 -5 -18z"/>
<path d="M10843 4960 c0 -36 2 -50 4 -32 2 17 2 47 0 65 -2 17 -4 3 -4 -33z"/>
<path d="M5371 4994 c0 -11 3 -14 6 -6 3 7 2 16 -1 19 -3 4 -6 -2 -5 -13z"/>
<path d="M3982 4980 c0 -14 2 -19 5 -12 2 6 2 18 0 25 -3 6 -5 1 -5 -13z"/>
<path d="M6463 4930 c0 -25 2 -35 4 -22 2 12 2 32 0 45 -2 12 -4 2 -4 -23z"/>
<path d="M10662 4935 c0 -16 2 -22 5 -12 2 9 2 23 0 30 -3 6 -5 -1 -5 -18z"/>
<path d="M6462 4855 c0 -16 2 -22 5 -12 2 9 2 23 0 30 -3 6 -5 -1 -5 -18z"/>
<path d="M8452 4835 c0 -16 4 -43 8 -60 11 -42 11 -1 1 50 -7 34 -9 35 -9 10z"/>
<path d="M10652 4835 c0 -16 2 -22 5 -12 2 9 2 23 0 30 -3 6 -5 -1 -5 -18z"/>
<path d="M3161 4834 c0 -11 3 -14 6 -6 3 7 2 16 -1 19 -3 4 -6 -2 -5 -13z"/>
<path d="M3152 4750 c0 -14 2 -19 5 -12 2 6 2 18 0 25 -3 6 -5 1 -5 -13z"/>
<path d="M2381 4704 c0 -11 3 -14 6 -6 3 7 2 16 -1 19 -3 4 -6 -2 -5 -13z"/>
<path d="M3412 4690 c0 -14 2 -19 5 -12 2 6 2 18 0 25 -3 6 -5 1 -5 -13z"/>
<path d="M2372 4645 c0 -16 2 -22 5 -12 2 9 2 23 0 30 -3 6 -5 -1 -5 -18z"/>
<path d="M3172 4435 c0 -16 2 -22 5 -12 2 9 2 23 0 30 -3 6 -5 -1 -5 -18z"/>
<path d="M1612 4120 c0 -14 2 -19 5 -12 2 6 2 18 0 25 -3 6 -5 1 -5 -13z"/>
<path d="M11132 3950 c0 -14 2 -19 5 -12 2 6 2 18 0 25 -3 6 -5 1 -5 -13z"/>
<path d="M1571 3884 c0 -11 3 -14 6 -6 3 7 2 16 -1 19 -3 4 -6 -2 -5 -13z"/>
<path d="M1582 3830 c0 -14 2 -19 5 -12 2 6 2 18 0 25 -3 6 -5 1 -5 -13z"/>
<path d="M1822 3225 c0 -16 2 -22 5 -12 2 9 2 23 0 30 -3 6 -5 -1 -5 -18z"/>
<path d="M1561 2738 c0 -48 8 -149 19 -225 12 -76 30 -223 41 -327 15 -151 28
-224 63 -355 25 -91 57 -233 71 -316 15 -82 28 -152 31 -154 2 -3 11 2 18 10
19 20 -28 306 -82 500 -31 109 -45 186 -57 305 -9 87 -32 231 -51 319 -19 88
-39 198 -43 245 l-8 85 -2 -87z"/>
<path d="M11093 1525 c0 -27 2 -38 4 -22 2 15 2 37 0 50 -2 12 -4 0 -4 -28z"/>
<path d="M11081 1414 c0 -11 3 -14 6 -6 3 7 2 16 -1 19 -3 4 -6 -2 -5 -13z"/>
<path d="M7642 1400 c0 -14 2 -19 5 -12 2 6 2 18 0 25 -3 6 -5 1 -5 -13z"/>
<path d="M11082 1360 c0 -19 2 -27 5 -17 2 9 2 25 0 35 -3 9 -5 1 -5 -18z"/>
<path d="M8754 1055 c0 -104 2 -146 3 -92 2 54 2 139 0 190 -1 51 -3 7 -3 -98z"/>
<path d="M8722 1070 c0 -19 2 -27 5 -17 2 9 2 25 0 35 -3 9 -5 1 -5 -18z"/>
<path d="M8731 1004 c0 -11 3 -14 6 -6 3 7 2 16 -1 19 -3 4 -6 -2 -5 -13z"/>
</g>
</svg>
